<svg xmlns="http://www.w3.org/2000/svg" viewBox="0 0 418.21 389.17"><defs><style>.cls-1,.cls-4{fill:#90a4ae;}.cls-1,.cls-2,.cls-8{opacity:0.25;}.cls-2,.cls-3,.cls-8,.cls-9{fill:none;stroke-linecap:round;}.cls-2{stroke:#707070;stroke-miterlimit:10;stroke-width:15.1px;}.cls-3,.cls-8{stroke:#000;}.cls-3,.cls-8,.cls-9{stroke-linejoin:round;stroke-width:12.08px;}.cls-5{fill:#fff;}.cls-5,.cls-7{opacity:0.5;}.cls-6{fill:#4464e6;}.cls-9{stroke:#fff;opacity:0.75;}.cls-10{fill:#33bbe2;}</style></defs><title>Asset 2</title><g id="Layer_2" data-name="Layer 2"><g id="Illustrations"><g id="AI"><circle class="cls-1" cx="209.34" cy="194.59" r="194.59"/><line class="cls-2" x1="333.42" y1="334.17" x2="83.39" y2="334.17"/><line class="cls-3" x1="412.18" y1="322.41" x2="396.99" y2="322.41"/><line class="cls-3" x1="359.6" y1="321.89" x2="58.91" y2="321.89"/><line class="cls-3" x1="21.23" y1="322.41" x2="6.04" y2="322.41"/><path class="cls-4" d="M225,273.44l-18.44,6.75-3.82-3.82,6.75-18.44a52.59,52.59,0,0,1,12.21-19.12l58.62-58.62V44.29H109.22l-29,28.95V312H280.35V225l-36.2,36.2A52.67,52.67,0,0,1,225,273.44Z"/><path class="cls-5" d="M225,273.44l-18.44,6.75-3.82-3.82,6.75-18.44a52.59,52.59,0,0,1,12.21-19.12l58.62-58.62V44.29H109.22l-29,28.95V312H280.35V225l-36.2,36.2A52.67,52.67,0,0,1,225,273.44Z"/><path class="cls-6" d="M337.7,147.46a15.86,15.86,0,0,0-23.47-1.15l-33.88,33.88-58.62,58.62a52.59,52.59,0,0,0-12.21,19.12l-6.75,18.44,3.82,3.82L225,273.44a52.67,52.67,0,0,0,19.12-12.21l36.2-36.2,55.82-55.82C342,163.36,343,153.85,337.7,147.46Z"/><polygon class="cls-4" points="109.22 73.24 80.27 73.24 109.22 44.29 109.22 73.24"/><polyline class="cls-3" points="280.35 178.04 280.35 44.29 109.22 44.29 80.27 73.24 80.27 312.02 280.35 312.02 280.35 228.15"/><polygon class="cls-3" points="109.22 73.24 80.27 73.24 109.22 44.29 109.22 73.24"/><line class="cls-3" x1="195.84" y1="287.12" x2="193.04" y2="289.92"/><path class="cls-3" d="M206.59,280.19,225,273.44a52.67,52.67,0,0,0,19.12-12.21l92-92c5.85-5.85,6.8-15.36,1.53-21.75a15.86,15.86,0,0,0-23.47-1.15l-92.5,92.5a52.59,52.59,0,0,0-12.21,19.12l-6.75,18.44Z"/><line class="cls-3" x1="229.79" y1="230.74" x2="252.21" y2="253.17"/><line class="cls-3" x1="358.85" y1="168.51" x2="301.69" y2="225.68"/><line class="cls-3" x1="345.67" y1="181.7" x2="335.97" y2="172"/><polygon class="cls-7" points="109.22 73.24 80.27 73.24 109.22 44.29 109.22 73.24"/><line class="cls-3" x1="107.07" y1="109.6" x2="199.5" y2="109.6"/><line class="cls-3" x1="107.07" y1="127.89" x2="199.5" y2="127.89"/><line class="cls-3" x1="107.07" y1="146.18" x2="199.5" y2="146.18"/><line class="cls-3" x1="107.07" y1="164.47" x2="199.5" y2="164.47"/><line class="cls-3" x1="107.07" y1="182.77" x2="162.91" y2="182.77"/><line class="cls-8" x1="80.26" y1="304.7" x2="280.35" y2="304.7"/><line class="cls-8" x1="103.41" y1="82.11" x2="84.36" y2="82.11"/><path class="cls-8" d="M210.25,283.85l18.44-6.75a52.8,52.8,0,0,0,19.12-12.21l28.1-28.11"/><line class="cls-9" x1="323.38" y1="156.2" x2="280.11" y2="199.8"/><path class="cls-3" d="M100.59,287.12c-10.06-34,21.14-65.71,34.4-56.9,11.32,7.51-11.75,27.06-12.26,41.58s14.38,13.62,32-3.09c16.44-15.54,25.54,2,21.3,18.41"/><g id="shock_color"><circle class="cls-10" cx="245.64" cy="80.89" r="18.9" transform="translate(-9.75 40.15) rotate(-9.16)"/><path class="cls-10" d="M237.71,98.06v0Z"/><path class="cls-10" d="M253.56,98v0S253.56,98,253.56,98Z"/><path class="cls-10" d="M253.56,98.06c0,.07-.36.35-3.89,1a21.42,21.42,0,0,1-8.06,0c-3.54-.68-3.88-1-3.9-1l-7.92,43.61,15.85-13.06,15.84,13.06Z"/></g><circle class="cls-3" cx="245.64" cy="80.89" r="18.9" transform="translate(-9.75 40.15) rotate(-9.16)"/><path class="cls-3" d="M237.71,98.06v0Z"/><path class="cls-3" d="M253.56,98v0S253.56,98,253.56,98Z"/><path class="cls-3" d="M253.56,98.06c0,.07-.36.35-3.89,1a21.42,21.42,0,0,1-8.06,0c-3.54-.68-3.88-1-3.9-1l-7.92,43.61,15.85-13.06,15.84,13.06Z"/></g></g></g></svg>