<svg width="674" height="471" viewBox="0 0 674 471" fill="none" xmlns="http://www.w3.org/2000/svg">
<g clip-path="url(#clip0)">
<path d="M64.7334 249.138C54.6664 181.927 32.0483 176.054 14.6598 142.122C-1.15977 111.323 -13.8416 60.8165 30.7409 24.6661C100.033 -31.4519 185.014 25.9712 185.014 25.9712C185.014 25.9712 319.677 102.97 343.21 106.886C366.744 110.801 424.269 149.953 496.176 102.97C568.084 55.9878 629.532 59.903 649.143 95.1399C668.754 130.377 624.302 232.172 613.843 253.053C603.384 273.935 619.072 339.188 636.069 365.29C653.065 391.391 706.668 472.305 591.617 469.695C476.565 467.085 131.411 471 131.411 471C131.411 471 7.4691 468.651 29.4335 348.324C47.7371 247.833 68.6556 275.24 64.7334 249.138Z" fill="#33BCE3" fill-opacity="0.11"/>
<path d="M109.185 240.003C123.626 240.003 135.333 228.316 135.333 213.901C135.333 199.486 123.626 187.8 109.185 187.8C94.7438 187.8 83.0369 199.486 83.0369 213.901C83.0369 228.316 94.7438 240.003 109.185 240.003Z" fill="#33BCE3" fill-opacity="0.39"/>
<path d="M65.387 263.494C75.1348 263.494 83.0369 255.606 83.0369 245.875C83.0369 236.145 75.1348 228.257 65.387 228.257C55.6392 228.257 47.737 236.145 47.737 245.875C47.737 255.606 55.6392 263.494 65.387 263.494Z" fill="#33BCE3" fill-opacity="0.39"/>
<path d="M68.0018 215.206C73.4173 215.206 77.8073 210.824 77.8073 205.418C77.8073 200.012 73.4173 195.63 68.0018 195.63C62.5864 195.63 58.1963 200.012 58.1963 205.418C58.1963 210.824 62.5864 215.206 68.0018 215.206Z" fill="#33BCE3" fill-opacity="0.39"/>
<path d="M673.692 394.196C676.005 379.967 666.325 366.559 652.07 364.25C637.815 361.941 624.384 371.604 622.07 385.833C619.757 400.063 629.437 413.47 643.692 415.779C657.947 418.089 671.378 408.426 673.692 394.196Z" fill="#33BCE3" fill-opacity="0.39"/>
<path d="M19.6279 91.2244C25.0433 91.2244 29.4334 86.8422 29.4334 81.4364C29.4334 76.0306 25.0433 71.6484 19.6279 71.6484C14.2124 71.6484 9.82233 76.0306 9.82233 81.4364C9.82233 86.8422 14.2124 91.2244 19.6279 91.2244Z" fill="#33BCE3" fill-opacity="0.39"/>
<path d="M183.053 434.458C208.686 434.458 229.466 413.715 229.466 388.128C229.466 362.541 208.686 341.798 183.053 341.798C157.42 341.798 136.64 362.541 136.64 388.128C136.64 413.715 157.42 434.458 183.053 434.458Z" fill="#33BCE3" fill-opacity="0.15"/>
<path d="M489.639 456.644C506.969 456.644 521.017 442.621 521.017 425.323C521.017 408.024 506.969 394.001 489.639 394.001C472.31 394.001 458.262 408.024 458.262 425.323C458.262 442.621 472.31 456.644 489.639 456.644Z" fill="#33BCE3" fill-opacity="0.15"/>
<path d="M609.921 280.46C619.307 280.46 626.917 272.864 626.917 263.494C626.917 254.124 619.307 246.528 609.921 246.528C600.534 246.528 592.924 254.124 592.924 263.494C592.924 272.864 600.534 280.46 609.921 280.46Z" fill="#33BCE3" fill-opacity="0.15"/>
<path d="M483.102 144.732C501.876 144.732 517.095 129.541 517.095 110.801C517.095 92.0605 501.876 76.8687 483.102 76.8687C464.329 76.8687 449.11 92.0605 449.11 110.801C449.11 129.541 464.329 144.732 483.102 144.732Z" fill="#33BCE3" fill-opacity="0.15"/>
<path d="M171.287 36.4115C180.312 36.4115 187.629 29.1077 187.629 20.0981C187.629 11.0884 180.312 3.7847 171.287 3.7847C162.261 3.7847 154.944 11.0884 154.944 20.0981C154.944 29.1077 162.261 36.4115 171.287 36.4115Z" fill="#33BCE3" fill-opacity="0.15"/>
<path d="M118.99 361.374C128.016 361.374 135.333 354.07 135.333 345.061C135.333 336.051 128.016 328.747 118.99 328.747C109.965 328.747 102.648 336.051 102.648 345.061C102.648 354.07 109.965 361.374 118.99 361.374Z" fill="#33BCE3" fill-opacity="0.15"/>
<path d="M645.874 172.139C654.9 172.139 662.217 164.835 662.217 155.825C662.217 146.816 654.9 139.512 645.874 139.512C636.848 139.512 629.531 146.816 629.531 155.825C629.531 164.835 636.848 172.139 645.874 172.139Z" fill="#33BCE3" fill-opacity="0.39"/>
<path d="M619.726 450.119C629.474 450.119 637.376 442.231 637.376 432.5C637.376 422.77 629.474 414.882 619.726 414.882C609.978 414.882 602.076 422.77 602.076 432.5C602.076 442.231 609.978 450.119 619.726 450.119Z" fill="#33BCE3" fill-opacity="0.39"/>
<path d="M658.948 451.424C664.364 451.424 668.754 447.042 668.754 441.636C668.754 436.23 664.364 431.848 658.948 431.848C653.533 431.848 649.143 436.23 649.143 441.636C649.143 447.042 653.533 451.424 658.948 451.424Z" fill="#33BCE3" fill-opacity="0.39"/>
<path d="M376.81 369.466H531.345C531.345 369.466 537.098 369.205 537.098 362.418V349.106H370.666V365.159C371.581 367.899 373.934 369.596 376.81 369.466Z" fill="#33BCE3" fill-opacity="0.63"/>
<path d="M370.666 249.007L370.535 354.327L536.967 352.761V245.875C536.967 245.875 538.013 239.741 531.476 239.741H376.941C376.941 239.872 370.012 239.872 370.666 249.007Z" fill="#33BCE3" fill-opacity="0.63"/>
<path d="M440.742 397.786V368.421L465.06 369.465V395.175L440.742 397.786Z" fill="#33BCE3" fill-opacity="0.63"/>
<path d="M402.043 394.784H503.236L503.367 399.874H402.043V394.784Z" fill="#33BCE3" fill-opacity="0.63"/>
<path d="M452.378 356.415C455.124 356.415 457.216 358.503 457.216 361.244C457.216 363.984 455.124 366.072 452.378 366.072C449.633 366.072 447.541 363.984 447.541 361.244C447.541 358.503 449.764 356.415 452.378 356.415Z" fill="white"/>
<path d="M531.999 244.962H375.765V347.279H531.999V244.962Z" fill="#F8F8FF"/>
<path d="M383.609 250.182C384.916 250.182 386.093 251.357 386.093 252.662C386.093 253.967 384.916 255.141 383.609 255.141C382.302 255.141 381.125 253.967 381.125 252.662C381.125 251.357 382.302 250.182 383.609 250.182Z" fill="#FA5F5D"/>
<path d="M391.976 250.182C393.284 250.182 394.46 251.357 394.46 252.662C394.46 253.967 393.284 255.141 391.976 255.141C390.669 255.141 389.492 253.967 389.492 252.662C389.492 251.357 390.538 250.182 391.976 250.182Z" fill="#FDBC4E"/>
<path d="M400.605 250.182C401.913 250.182 403.089 251.357 403.089 252.662C403.089 253.967 401.913 255.141 400.605 255.141C399.298 255.141 398.121 253.967 398.121 252.662C398.252 251.357 399.298 250.182 400.605 250.182Z" fill="#37CD58"/>
<path d="M434.598 268.061C434.467 269.367 433.421 270.411 432.114 270.28H402.174C400.605 270.28 399.167 269.236 399.167 268.061V263.494C399.167 262.319 400.605 261.145 402.174 261.145H431.983C433.29 261.014 434.467 262.058 434.598 263.363V263.494V268.061V268.061Z" fill="url(#paint0_linear)"/>
<path d="M432.637 317.393C432.637 318.698 431.46 319.873 430.152 319.873H402.174C400.605 319.873 399.167 318.698 399.167 317.393V304.995C399.167 303.69 400.736 302.515 402.174 302.515H430.022C431.329 302.385 432.506 303.429 432.637 304.865V304.995V317.393V317.393Z" fill="url(#paint1_linear)"/>
<path d="M469.113 317.393C469.113 318.698 467.936 319.873 466.629 319.873H438.651C437.082 319.873 435.644 318.698 435.644 317.393V304.995C435.644 303.69 437.212 302.515 438.651 302.515H466.498C467.806 302.385 468.982 303.429 469.113 304.865V304.995V317.393V317.393Z" fill="url(#paint2_linear)"/>
<path d="M506.636 317.393C506.505 318.829 505.328 319.873 503.89 319.873H476.042C474.473 320.003 473.297 318.829 473.035 317.393V304.995C473.166 303.429 474.473 302.515 476.042 302.515H503.89C505.328 302.385 506.636 303.559 506.766 304.995L506.636 317.393Z" fill="url(#paint3_linear)"/>
<path d="M469.113 324.441C468.852 324.963 468.459 325.224 467.936 325.354C467.806 325.354 467.806 325.354 467.675 324.963H437.082C436.428 325.354 435.513 324.963 435.513 324.441V324.049C435.513 323.527 436.428 323.005 437.082 322.874H467.675C468.198 323.005 468.459 323.397 468.59 323.788C468.59 323.919 468.59 323.919 468.852 324.049L469.113 324.441Z" fill="#E9EDFB"/>
<path d="M469.113 328.356C468.852 328.878 468.459 329.269 467.936 329.4C467.936 329.4 467.806 329.4 467.806 329.008H437.082C436.428 329.4 435.513 329.008 435.513 328.356V327.964C435.513 327.442 436.428 327.051 437.082 326.92H467.675C468.198 327.051 468.721 327.442 468.852 327.964L469.113 328.356Z" fill="#E9EDFB"/>
<path d="M469.113 332.401C468.852 333.054 468.459 333.446 467.936 333.576C467.936 333.315 467.936 333.315 467.936 333.054H437.212C436.689 333.315 436.036 333.315 435.774 332.793C435.644 332.663 435.644 332.532 435.644 332.532V332.14C435.644 331.618 436.559 331.357 437.212 331.096H467.806C468.329 331.227 468.852 331.618 468.982 332.14L469.113 332.401Z" fill="#E9EDFB"/>
<path d="M469.113 336.317C468.852 336.969 468.459 337.491 467.936 338.013H437.212C436.559 337.491 435.644 336.839 435.644 336.317V335.925C435.644 335.403 436.559 334.751 437.212 335.012H467.806C468.198 334.881 468.59 335.273 468.721 335.664C468.721 335.795 468.721 335.925 468.721 335.925C468.721 335.925 468.721 335.925 468.982 336.056L469.113 336.317Z" fill="#E9EDFB"/>
<path d="M452.117 340.362C452.117 340.884 451.855 341.015 451.202 341.015H437.082C436.428 341.015 435.644 340.754 435.644 340.362V339.971C435.644 339.449 436.428 339.057 437.082 339.057H451.202C451.725 339.057 452.117 339.449 452.117 339.971V340.362Z" fill="#E9EDFB"/>
<path d="M506.636 324.441C505.982 324.963 506.113 325.354 505.459 324.963H474.866C474.343 325.354 473.82 325.093 473.82 324.571C473.82 324.571 473.82 324.571 474.081 324.441V324.049C473.82 323.527 474.212 323.005 474.735 322.874H505.328C505.982 323.136 505.851 323.527 506.505 324.049V324.441H506.636Z" fill="#E9EDFB"/>
<path d="M506.636 328.356C505.982 328.878 506.113 329.4 505.459 329.008H474.866C474.212 329.4 473.82 329.008 474.212 328.356V327.964C473.95 327.442 474.343 327.051 474.866 326.92H505.459C506.113 327.181 505.982 327.442 506.636 327.964V328.356Z" fill="#E9EDFB"/>
<path d="M506.636 332.401C505.982 332.923 506.113 333.576 505.459 333.054H474.866C474.212 333.446 473.82 333.054 474.212 332.401V332.01C473.95 331.488 474.343 331.227 474.866 330.966H505.459C506.113 331.227 505.982 331.488 506.636 332.01V332.401Z" fill="#E9EDFB"/>
<path d="M506.636 336.317C505.982 336.839 506.113 337.491 505.459 338.013H474.866C474.212 337.361 473.82 336.839 474.212 336.317V335.925C473.95 335.664 473.95 335.273 474.212 335.142C474.473 335.012 474.604 334.881 474.866 335.012H505.59C506.243 334.751 506.113 335.403 506.766 335.925V336.317H506.636Z" fill="#E9EDFB"/>
<path d="M489.77 340.362C489.77 340.884 489.77 341.015 489.247 341.015H474.996C474.343 341.015 474.081 340.754 474.081 340.362V339.971C474.081 339.449 474.473 339.057 474.996 339.057H489.116C489.77 339.057 489.639 339.449 489.639 339.971L489.77 340.362Z" fill="#E9EDFB"/>
<path d="M431.591 324.441C431.983 324.963 431.852 325.354 431.198 324.963H400.474C400.082 325.224 399.559 325.224 399.298 324.832C399.167 324.702 399.167 324.571 399.036 324.441V324.049C399.298 323.397 399.69 323.005 400.344 322.874H430.937C431.591 323.136 431.721 323.527 431.329 324.049L431.591 324.441Z" fill="#E9EDFB"/>
<path d="M431.591 328.356C431.983 328.878 431.852 329.4 431.198 329.008H400.474C399.821 329.53 399.298 329.008 399.167 328.356V327.964C399.298 327.442 399.821 327.051 400.474 326.92H431.068C431.721 327.181 431.852 327.442 431.46 327.964L431.591 328.356Z" fill="#E9EDFB"/>
<path d="M431.591 332.401C431.983 332.924 431.852 333.576 431.198 333.054H400.474C399.821 333.576 399.298 333.054 399.167 332.401V332.01C399.298 331.488 399.821 331.227 400.474 330.966H431.068C431.721 331.227 431.852 331.488 431.46 332.01L431.591 332.401Z" fill="#E9EDFB"/>
<path d="M422.439 335.012H431.198C431.852 334.751 431.983 335.403 431.591 335.925V336.317C431.983 336.839 431.852 337.491 431.198 338.013H400.474C399.821 337.622 399.429 336.969 399.167 336.317V335.925C399.298 335.273 399.821 334.881 400.474 335.012H422.439Z" fill="#E9EDFB"/>
<path d="M416.425 340.362C416.425 340.884 416.163 341.015 415.51 341.015H400.344C399.69 341.015 399.167 340.754 399.167 340.362V339.971C399.298 339.449 399.821 339.057 400.344 339.057H415.51C416.032 339.057 416.425 339.449 416.425 339.84C416.425 339.84 416.425 339.84 416.425 339.971V340.362Z" fill="#E9EDFB"/>
<path d="M292.744 145.907L341.772 87.5702L400.213 136.641L351.185 194.847L292.744 145.907Z" fill="url(#paint4_linear)" stroke="url(#paint5_linear)" stroke-width="2.70007" stroke-miterlimit="10"/>
<path d="M278.232 155.825L289.345 142.514L354.585 196.674L343.472 209.986L278.232 155.825Z" fill="url(#paint6_linear)" stroke="url(#paint7_linear)" stroke-width="0.540014" stroke-miterlimit="10"/>
<path d="M363.867 144.602C359.683 144.602 310.002 158.566 310.002 158.566L348.571 191.193L355.369 174.227C355.369 174.227 365.175 144.602 363.867 144.602Z" fill="white"/>
<path d="M344.256 80.0008H267.512V156.608H344.256V80.0008Z" fill="url(#paint8_linear)" stroke="url(#paint9_linear)" stroke-width="0.540014" stroke-miterlimit="10"/>
<path d="M343.602 79.3483H266.858V155.956H343.602V79.3483Z" stroke="url(#paint10_linear)" stroke-width="2.70007" stroke-miterlimit="10"/>
<path d="M346.348 156.217H263.197V173.313H346.348V156.217Z" fill="url(#paint11_linear)"/>
<path d="M309.741 154.651L331.444 118.239L342.818 134.031V155.303H333.928L309.741 154.651Z" fill="white"/>
<path d="M288.953 155.042L314.84 120.589L335.235 155.303L288.953 155.042Z" fill="white"/>
<path d="M291.045 94.0956C294.444 94.0956 297.19 96.8362 297.19 100.229C297.19 103.623 294.444 106.363 291.045 106.363C287.646 106.363 284.9 103.623 284.9 100.229C284.9 96.8362 287.646 94.0956 291.045 94.0956Z" fill="white"/>
<path d="M269.211 384.474C269.211 387.214 267.119 389.303 264.374 389.303H194.035C191.421 389.303 189.198 387.214 189.198 384.474V235.565C189.198 232.955 191.29 230.736 194.035 230.736H264.374C266.989 230.736 269.211 232.825 269.211 235.565V384.474V384.474Z" fill="url(#paint12_linear)"/>
<path d="M262.02 251.879H197.304V369.335H262.02V251.879Z" fill="white"/>
<path d="M197.435 369.466V251.748L240.971 251.618L215.085 369.335L197.435 369.466Z" fill="white"/>
<path d="M224.367 242.352H233.911C234.565 242.352 235.219 242.874 235.219 243.657C235.219 244.309 234.696 244.962 233.911 244.962H224.367C223.713 244.962 223.06 244.44 223.06 243.657C223.06 242.874 223.583 242.352 224.367 242.352Z" fill="white" stroke="white" stroke-width="0.540014" stroke-miterlimit="10"/>
<path d="M229.205 238.958C229.854 238.958 230.381 238.433 230.381 237.784C230.381 237.135 229.854 236.609 229.205 236.609C228.555 236.609 228.028 237.135 228.028 237.784C228.028 238.433 228.555 238.958 229.205 238.958Z" fill="white"/>
<path d="M229.205 382.908C231.299 382.908 232.996 381.213 232.996 379.123C232.996 377.033 231.299 375.338 229.205 375.338C227.111 375.338 225.413 377.033 225.413 379.123C225.413 381.213 227.111 382.908 229.205 382.908Z" fill="white" stroke="white" stroke-width="1.08003" stroke-miterlimit="10"/>
</g>
<defs>
<linearGradient id="paint0_linear" x1="399.122" y1="265.689" x2="434.629" y2="265.689" gradientUnits="userSpaceOnUse">
<stop stop-color="#4464E7"/>
<stop offset="1" stop-color="#33BCE3"/>
</linearGradient>
<linearGradient id="paint1_linear" x1="399.122" y1="311.255" x2="432.6" y2="311.255" gradientUnits="userSpaceOnUse">
<stop stop-color="#2FEC68"/>
<stop offset="1" stop-color="#4464E7"/>
</linearGradient>
<linearGradient id="paint2_linear" x1="399.122" y1="311.255" x2="432.6" y2="311.255" gradientUnits="userSpaceOnUse">
<stop stop-color="#E5A4ED"/>
<stop offset="1" stop-color="#4464E7"/>
</linearGradient>
<linearGradient id="paint3_linear" x1="399.122" y1="311.255" x2="432.6" y2="311.255" gradientUnits="userSpaceOnUse">
<stop stop-color="#4464E7"/>
<stop offset="1" stop-color="#4464E7"/>
</linearGradient>
<linearGradient id="paint4_linear" x1="355.516" y1="194.153" x2="337.415" y2="88.3516" gradientUnits="userSpaceOnUse">
<stop stop-color="#2FEC68"/>
<stop offset="1" stop-color="#4464E7"/>
</linearGradient>
<linearGradient id="paint5_linear" x1="355.516" y1="194.153" x2="337.415" y2="88.3516" gradientUnits="userSpaceOnUse">
<stop stop-color="#2FEC68"/>
<stop offset="1" stop-color="#4464E7"/>
</linearGradient>
<linearGradient id="paint6_linear" x1="278.356" y1="176.406" x2="354.477" y2="176.05" gradientUnits="userSpaceOnUse">
<stop stop-color="#2FEC68"/>
<stop offset="1" stop-color="#4464E7"/>
</linearGradient>
<linearGradient id="paint7_linear" x1="278.356" y1="176.406" x2="354.477" y2="176.05" gradientUnits="userSpaceOnUse">
<stop stop-color="#2FEC68"/>
<stop offset="1" stop-color="#4464E7"/>
</linearGradient>
<linearGradient id="paint8_linear" x1="355.516" y1="194.153" x2="337.415" y2="88.3517" gradientUnits="userSpaceOnUse">
<stop stop-color="#2FEC68"/>
<stop offset="1" stop-color="#4464E7"/>
</linearGradient>
<linearGradient id="paint9_linear" x1="355.516" y1="194.153" x2="337.415" y2="88.3517" gradientUnits="userSpaceOnUse">
<stop stop-color="#2FEC68"/>
<stop offset="1" stop-color="#4464E7"/>
</linearGradient>
<linearGradient id="paint10_linear" x1="355.516" y1="194.153" x2="337.415" y2="88.3517" gradientUnits="userSpaceOnUse">
<stop stop-color="#2FEC68"/>
<stop offset="1" stop-color="#4464E7"/>
</linearGradient>
<linearGradient id="paint11_linear" x1="355.516" y1="194.153" x2="337.415" y2="88.3517" gradientUnits="userSpaceOnUse">
<stop stop-color="#2FEC68"/>
<stop offset="1" stop-color="#4464E7"/>
</linearGradient>
<linearGradient id="paint12_linear" x1="114.066" y1="399.401" x2="266.449" y2="280.627" gradientUnits="userSpaceOnUse">
<stop stop-color="#2FEC68"/>
<stop offset="1" stop-color="#4464E7"/>
</linearGradient>
<clipPath id="clip0">
<rect width="674" height="471" fill="white"/>
</clipPath>
</defs>
</svg>
