<svg xmlns="http://www.w3.org/2000/svg" viewBox="0 0 418.21 389.17"><defs><style>.cls-1,.cls-5{fill:#90a4ae;}.cls-1,.cls-10,.cls-12,.cls-13,.cls-2,.cls-8{opacity:0.25;}.cls-11,.cls-12,.cls-13,.cls-2,.cls-3,.cls-7,.cls-8{fill:none;}.cls-2{stroke:#707070;stroke-width:15.1px;}.cls-11,.cls-13,.cls-2,.cls-3,.cls-8{stroke-linecap:round;}.cls-12,.cls-2,.cls-7,.cls-8{stroke-miterlimit:10;}.cls-12,.cls-13,.cls-3,.cls-7,.cls-8{stroke:#000;}.cls-11,.cls-13,.cls-3{stroke-linejoin:round;}.cls-11,.cls-12,.cls-13,.cls-3,.cls-7,.cls-8{stroke-width:12.08px;}.cls-4{fill:#4464e6;}.cls-6{fill:#33bbe2;}.cls-9{fill:#b0bec5;}.cls-11{stroke:#fff;opacity:0.75;}</style></defs><title>Asset 4</title><g id="Layer_2" data-name="Layer 2"><g id="Illustrations"><g id="AI"><circle class="cls-1" cx="209.34" cy="194.59" r="194.59"/><line class="cls-2" x1="333.42" y1="334.17" x2="83.39" y2="334.17"/><line class="cls-3" x1="412.18" y1="322.41" x2="396.99" y2="322.41"/><line class="cls-3" x1="359.6" y1="321.89" x2="58.91" y2="321.89"/><line class="cls-3" x1="21.23" y1="322.41" x2="6.04" y2="322.41"/><path id="shock_color" class="cls-4" d="M127.34,85.36V95.3c.46,0,.91-.07,1.38-.07a45.27,45.27,0,0,1,0,90.53c-.47,0-.92-.06-1.38-.07V199.4c.46,0,.91-.05,1.38-.05a57.48,57.48,0,0,1,17,2.6l.34.12a67.37,67.37,0,0,1,11.51.14,32.54,32.54,0,0,0,22.53-5.53l62.11-44c5.33-3.77,13-3.2,17,2a12.1,12.1,0,0,1-2.52,17.09l-60.58,42.91A22.51,22.51,0,0,0,187,228.23c0,.13,0,.26-.08.38a86.26,86.26,0,0,0-1.51,12.6H345.31a12.79,12.79,0,0,0,12.78-12.79V85.36Z"/><path class="cls-5" d="M174,140.49a45.26,45.26,0,0,0-45.26-45.26c-.47,0-.92,0-1.38.07a45.21,45.21,0,0,0,0,90.39c.46,0,.91.07,1.38.07A45.26,45.26,0,0,0,174,140.49Z"/><path class="cls-5" d="M187,228.23a22.51,22.51,0,0,1,9.06-13.58l60.58-42.91a12.1,12.1,0,0,0,2.52-17.09c-4-5.16-11.64-5.73-17-2l-62.11,44a32.54,32.54,0,0,1-22.53,5.53,67.37,67.37,0,0,0-11.51-.14l-1.65.12c.06,0-.11,0-.14.06l-11.5,23a.15.15,0,0,0,0,.07l11,61.15a.12.12,0,0,1,0,.11l-16.45,13.59a.14.14,0,0,1-.15,0l-16.48-13.56a.12.12,0,0,1,0-.11l10.91-61.17a.15.15,0,0,0,0-.07l-11.42-22.95a.1.1,0,0,0-.14-.06,57.93,57.93,0,0,0-40.5,55.29l0,47.56a10.36,10.36,0,0,0,10.37,10.35l95.12-.08A10.35,10.35,0,0,0,185.32,305l0-47.56c0-1.55-.3-8.48.14-16.24a86.26,86.26,0,0,1,1.51-12.6C187,228.49,187,228.36,187,228.23Z"/><path class="cls-6" d="M110.68,286.32,127.28,300l16.59-13.68-11-61.26L144.47,202a57.43,57.43,0,0,0-17-2.6c-.47,0-.92,0-1.38.05A58,58,0,0,0,110.2,202l11.46,23.09Z"/><path class="cls-7" d="M174,140.49a45.26,45.26,0,0,0-45.26-45.26c-.47,0-.92,0-1.38.07a45.21,45.21,0,0,0,0,90.39c.46,0,.91.07,1.38.07A45.26,45.26,0,0,0,174,140.49Z"/><path class="cls-3" d="M256.65,171.74a12,12,0,0,0,2.52-17.09c-4-5.16-11.64-5.73-17-2l-62.11,44a32.6,32.6,0,0,1-22.53,5.53,73.09,73.09,0,0,0-13.16,0c.06,0-.11,0-.14.06l-11.5,23a.15.15,0,0,0,0,.07l11,61.15a.12.12,0,0,1,0,.11l-16.45,13.59a.14.14,0,0,1-.15,0l-16.48-13.56a.12.12,0,0,1,0-.11l10.91-61.17a.15.15,0,0,0,0-.07l-11.42-22.95a.1.1,0,0,0-.14-.06,57.93,57.93,0,0,0-40.5,55.29l0,47.56a10.36,10.36,0,0,0,10.37,10.35l95.12-.08A10.35,10.35,0,0,0,185.32,305l0-47.56c0-2.42-.73-17.89,1.73-29.22a22.51,22.51,0,0,1,9.06-13.58Z"/><path class="cls-3" d="M127.34,85.36V95.3c.46,0,.91-.07,1.38-.07a45.27,45.27,0,0,1,0,90.53c-.47,0-.92-.06-1.38-.07V199.4c.46,0,.91-.05,1.38-.05a57.48,57.48,0,0,1,17,2.6l.34.12a67.37,67.37,0,0,1,11.51.14,32.54,32.54,0,0,0,22.53-5.53l62.11-44c5.33-3.77,13-3.2,17,2a12.1,12.1,0,0,1-2.52,17.09l-60.58,42.91A22.51,22.51,0,0,0,187,228.23c0,.13,0,.26-.08.38a86.26,86.26,0,0,0-1.51,12.6H345.31a12.79,12.79,0,0,0,12.78-12.79V85.36Z"/><path class="cls-3" d="M110.68,286.32,127.28,300l16.59-13.68-11-61.26L144.47,202a57.43,57.43,0,0,0-17-2.6c-.47,0-.92,0-1.38.05A58,58,0,0,0,110.2,202l11.46,23.09Z"/><path class="cls-8" d="M192.3,234.55h153a12.78,12.78,0,0,0,12.78-12.78"/><path class="cls-9" d="M361.93,62.61H123.5a11,11,0,1,0,0,21.9H361.93a11,11,0,1,0,0-21.9Z"/><path class="cls-10" d="M361.93,62.61H123.5a11,11,0,1,0,0,21.9H361.93a11,11,0,1,0,0-21.9Z"/><path class="cls-11" d="M158,141.42A29.44,29.44,0,0,0,128.57,112"/><path class="cls-7" d="M361.93,62.61H123.5a11,11,0,1,0,0,21.9H361.93a11,11,0,1,0,0-21.9Z"/><path class="cls-12" d="M361.93,62.61H123.5a11,11,0,1,0,0,21.9H361.93a11,11,0,1,0,0-21.9Z"/><line class="cls-3" x1="290.84" y1="177.09" x2="307.92" y2="177.11"/><path class="cls-6" d="M319,135.72a19.54,19.54,0,1,0-39.07,0c0,7.7,11,24.71,11,28.28v4.44H308V164C308,160,319,143.42,319,135.72Z"/><path class="cls-3" d="M302.37,179.24a1.23,1.23,0,0,1-1.23,1.23h-3.35a1.24,1.24,0,0,1-1.23-1.24"/><path class="cls-3" d="M319,135.72a19.54,19.54,0,1,0-39.07,0c0,7.7,11,24.71,11,28.28v4.44H308V164C308,160,319,143.42,319,135.72Z"/><path class="cls-13" d="M69.42,298.29a10.23,10.23,0,0,0,10.24,10.24H175a10.23,10.23,0,0,0,10.24-10.24"/><line class="cls-11" x1="260.93" y1="104.78" x2="194.62" y2="104.78"/><line class="cls-13" x1="255.39" y1="165.16" x2="189.22" y2="212.13"/></g></g></g></svg>