<svg width="279" height="209" viewBox="0 0 279 209" fill="none" xmlns="http://www.w3.org/2000/svg">
<g clip-path="url(#clip0)">
<path d="M15.7714 48.3282L8.5498 55.5498L15.2873 62.2873L22.5089 55.0657L15.7714 48.3282Z" fill="#33BCE3" fill-opacity="0.37"/>
<path d="M23.7152 56.9265L16.4936 64.1481L23.2311 70.8856L30.4526 63.664L23.7152 56.9265Z" fill="#33BCE3" fill-opacity="0.37"/>
<path d="M25.4285 39.8084L18.2069 47.03L24.9443 53.7674L32.1659 46.5458L25.4285 39.8084Z" fill="#33BCE3" fill-opacity="0.37"/>
<path d="M253.69 163.013L246.468 170.234L253.205 176.972L260.427 169.75L253.69 163.013Z" fill="#33BCE3" fill-opacity="0.37"/>
<path d="M261.637 171.609L254.416 178.831L261.153 185.568L268.375 178.347L261.637 171.609Z" fill="#33BCE3" fill-opacity="0.37"/>
<path d="M253.078 180.168L245.856 187.39L252.594 194.127L259.815 186.905L253.078 180.168Z" fill="#33BCE3" fill-opacity="0.37"/>
<path d="M140.822 15.5191H71.2136V51.4642H140.822V15.5191Z" fill="#33BCE3" fill-opacity="0.37"/>
<path d="M55.8086 150.171H29.563V208.367H55.8086V150.171Z" fill="#33BCE3" fill-opacity="0.37"/>
<path d="M42.1152 155.306C42.1152 155.306 19.2929 118.219 18.1518 108.52C17.0107 98.8205 15.8696 95.3971 15.8696 95.3971C15.8696 95.3971 22.7163 94.256 24.9985 99.391C27.2807 104.526 34.1274 98.2499 36.4097 111.943C36.4097 111.943 36.9802 118.79 42.1152 116.508C47.2502 114.226 42.1152 155.306 42.1152 155.306Z" fill="#33BCE3" fill-opacity="0.37"/>
<path d="M44.968 161.011C44.968 161.011 28.6501 130.772 23.2868 118.79C19.2929 109.889 15.8696 95.3971 15.8696 95.3971C15.8696 95.3971 8.96586 97.9076 9.59347 103.385C10.164 108.52 5.02901 110.232 6.17013 116.508C7.42535 123.297 17.2389 124.553 11.3051 130.772C7.71063 134.537 10.3922 140.928 13.0168 145.036C14.6714 147.66 22.9445 150.057 21.0046 149.03C16.5543 146.747 44.968 161.011 44.968 161.011Z" fill="#BAC5F4"/>
<path d="M34.6321 135.692C35.2046 135.429 32.8912 129.182 29.4649 121.739C26.0387 114.297 22.797 108.477 22.2245 108.741C21.6521 109.005 23.9655 115.251 27.3917 122.694C30.818 130.136 34.0596 135.956 34.6321 135.692Z" fill="#BAC5F4"/>
<path d="M49.8748 179.554C49.8748 179.554 15.1279 153.309 10.5634 144.693C5.99895 136.078 3.65967 133.282 3.65967 133.282C3.65967 133.282 9.65052 129.745 13.6444 133.682C17.6383 137.618 21.7463 129.288 28.8212 141.213C28.8212 141.213 29.62 149.6 34.755 147.888C40.0042 146.12 49.8748 179.554 49.8748 179.554Z" fill="#33BCE3" fill-opacity="0.37"/>
<path d="M54.6104 183.833C54.6104 183.833 28.4218 161.582 19.0647 152.396C12.1039 145.549 3.65967 133.282 3.65967 133.282C3.65967 133.282 -1.81768 138.132 0.692776 142.982C3.08912 147.546 -1.07595 151.026 2.29034 156.447C5.88485 162.323 15.5273 159.927 12.2751 167.858C10.2781 172.651 15.1279 177.671 19.0647 180.524C21.5752 182.35 30.1335 181.551 27.9654 181.323C22.9445 180.867 54.6104 183.833 54.6104 183.833Z" fill="#F8F8FF"/>
<path d="M32.3096 170.909C32.7471 170.456 28.3211 165.477 22.4239 159.79C16.5267 154.102 11.3914 149.859 10.9539 150.313C10.5164 150.767 14.9424 155.745 20.8396 161.432C26.7368 167.12 31.8721 171.363 32.3096 170.909Z" fill="#E1E6FB"/>
<path d="M230.97 109.718C230.97 109.718 258.071 65.6141 259.84 53.8606C261.609 42.1071 263.035 37.9991 263.035 37.9991C263.035 37.9991 255.504 36.2874 252.708 42.4494C249.912 48.6114 242.666 40.6807 239.471 57.2269C239.471 57.2269 238.501 65.557 232.91 62.533C227.318 59.5091 230.97 109.718 230.97 109.718Z" fill="#33BCE3" fill-opacity="0.37"/>
<path d="M227.546 116.508C227.546 116.508 247.116 80.4485 253.678 66.1276C258.528 55.5152 263.035 37.9991 263.035 37.9991C263.035 37.9991 270.566 41.3654 269.596 47.9838C268.683 54.2029 274.332 56.5422 272.734 64.1306C271.023 72.3466 260.068 73.4307 266.344 81.2473C270.11 85.9829 266.858 93.6855 263.72 98.5352C261.723 101.616 252.48 104.184 254.648 103.043C259.669 100.475 227.546 116.508 227.546 116.508Z" fill="#BAC5F4"/>
<path d="M246.66 69.4368C242.495 78.3375 239.642 85.8118 240.27 86.1541C240.897 86.4964 244.777 79.5927 248.942 70.692C253.107 61.7913 255.96 54.317 255.332 53.9176C254.705 53.5182 250.825 60.5361 246.66 69.4368Z" fill="#BAC5F4"/>
<path d="M221.156 138.874C221.156 138.874 260.981 108.52 266.458 98.1929C271.936 87.8658 274.674 84.6136 274.674 84.6136C274.674 84.6136 268.227 80.0491 263.605 84.6707C258.984 89.2922 254.876 78.9651 246.375 93.172C246.375 93.172 245.119 103.328 239.471 100.989C233.708 98.6493 221.156 138.874 221.156 138.874Z" fill="#F8F8FF"/>
<path d="M215.736 143.894C215.736 143.894 245.861 117.991 256.702 107.208C264.747 99.2199 274.731 84.6707 274.731 84.6707C274.731 84.6707 280.551 90.8327 277.527 96.6524C274.617 102.13 279.068 106.523 275.131 112.97C270.852 119.931 260.296 116.622 263.548 126.435C265.488 132.369 259.897 138.246 255.389 141.555C252.537 143.666 243.065 142.297 245.519 142.126C250.939 141.669 215.736 143.894 215.736 143.894Z" fill="#33BCE3" fill-opacity="0.37"/>
<path d="M255.732 113.769C249.227 120.73 244.321 126.778 244.777 127.348C245.234 127.919 250.939 122.727 257.443 115.766C263.948 108.805 268.855 102.757 268.398 102.187C267.942 101.616 262.236 106.808 255.732 113.769Z" fill="white"/>
<path d="M104.306 150.171H60.373V208.367H104.306V150.171Z" fill="#BAC5F4"/>
<path d="M200.16 150.741H156.227V208.938H200.16V150.741Z" fill="#33BCE3" fill-opacity="0.37"/>
<path d="M173.343 15.5191H144.815V52.0348H173.343V15.5191Z" fill="#33BCE3" fill-opacity="0.37"/>
<path d="M239.528 45.7587H40.4036V192.392H239.528V45.7587Z" fill="#BAC5F4"/>
<path d="M239.528 45.7587H45.5386V192.392H239.528V45.7587Z" fill="#F8F8FF"/>
<path d="M237.246 48.0409H47.2502V58.3109H237.246V48.0409Z" fill="white"/>
<path d="M237.246 57.7404H47.2502V190.11H237.246V57.7404Z" fill="#33BCE3" fill-opacity="0.37"/>
<path d="M102.024 62.8754H78.6309V89.121H102.024V62.8754Z" fill="#4464E7" fill-opacity="0.33"/>
<path d="M128.269 62.8754H104.876V89.121H128.269V62.8754Z" fill="#4464E7" fill-opacity="0.33"/>
<path d="M153.944 62.8754H130.552V89.121H153.944V62.8754Z" fill="#4464E7" fill-opacity="0.33"/>
<path d="M180.19 62.8754H156.797V89.121H180.19V62.8754Z" fill="white"/>
<path d="M205.865 62.8754H182.472V89.121H205.865V62.8754Z" fill="white"/>
<path d="M232.111 62.8754H208.718V89.121H232.111V62.8754Z" fill="white"/>
<path d="M102.024 93.1149H78.6309V119.361H102.024V93.1149Z" fill="white"/>
<path d="M128.269 93.1149H104.876V119.361H128.269V93.1149Z" fill="white"/>
<path d="M153.944 93.1149H130.552V119.361H153.944V93.1149Z" fill="#F8F8FF"/>
<path d="M180.19 93.1149H156.797V119.361H180.19V93.1149Z" fill="white"/>
<path d="M205.865 93.1149H182.472V119.361H205.865V93.1149Z" fill="white"/>
<path d="M232.111 93.1149H208.718V119.361H232.111V93.1149Z" fill="white"/>
<path d="M102.024 122.213H78.6309V148.459H102.024V122.213Z" fill="white"/>
<path d="M128.269 122.213H104.876V148.459H128.269V122.213Z" fill="white"/>
<path d="M153.944 122.213H130.552V148.459H153.944V122.213Z" fill="#F8F8FF"/>
<path d="M180.19 122.213H156.797V148.459H180.19V122.213Z" fill="white"/>
<path d="M205.865 122.213H182.472V148.459H205.865V122.213Z" fill="#F8F8FF"/>
<path d="M232.111 122.213H208.718V148.459H232.111V122.213Z" fill="white"/>
<path d="M102.594 151.882H79.2014V178.128H102.594V151.882Z" fill="#F8F8FF"/>
<path d="M128.84 151.882H105.447V178.128H128.84V151.882Z" fill="#F8F8FF"/>
<path d="M154.515 151.882H131.122V178.128H154.515V151.882Z" fill="white"/>
<path d="M180.761 151.882H157.368V178.128H180.761V151.882Z" fill="white"/>
<path d="M206.436 151.882H183.043V178.128H206.436V151.882Z" fill="#4464E7" fill-opacity="0.33"/>
<path d="M232.681 151.882H209.288V178.128H232.681V151.882Z" fill="white"/>
<path d="M52.6705 55.4581C53.7734 55.4581 54.6675 54.5641 54.6675 53.4612C54.6675 52.3583 53.7734 51.4642 52.6705 51.4642C51.5676 51.4642 50.6736 52.3583 50.6736 53.4612C50.6736 54.5641 51.5676 55.4581 52.6705 55.4581Z" fill="#BAC5F4"/>
<path d="M58.9467 55.4581C60.0495 55.4581 60.9436 54.5641 60.9436 53.4612C60.9436 52.3583 60.0495 51.4642 58.9467 51.4642C57.8438 51.4642 56.9497 52.3583 56.9497 53.4612C56.9497 54.5641 57.8438 55.4581 58.9467 55.4581Z" fill="#BAC5F4"/>
<path d="M65.2228 55.4581C66.3257 55.4581 67.2197 54.5641 67.2197 53.4612C67.2197 52.3583 66.3257 51.4642 65.2228 51.4642C64.1199 51.4642 63.2258 52.3583 63.2258 53.4612C63.2258 54.5641 64.1199 55.4581 65.2228 55.4581Z" fill="#BAC5F4"/>
<path d="M55.5233 92.5444H71.4989C72.9253 92.5444 74.0664 93.6855 74.0664 95.1119C74.0664 96.5383 72.9253 97.6794 71.4989 97.6794H55.5233C54.0969 97.6794 52.9558 96.5383 52.9558 95.1119C52.9558 93.7425 54.0969 92.5444 55.5233 92.5444Z" fill="white"/>
<path d="M55.5233 122.213H71.4989C72.9253 122.213 74.0664 123.354 74.0664 124.781C74.0664 126.207 72.9253 127.348 71.4989 127.348H55.5233C54.0969 127.348 52.9558 126.207 52.9558 124.781C52.9558 123.411 54.0969 122.213 55.5233 122.213Z" fill="white"/>
<path d="M55.5233 151.882H71.4989C72.9253 151.882 74.0664 153.023 74.0664 154.45C74.0664 155.876 72.9253 157.017 71.4989 157.017H55.5233C54.0969 157.017 52.9558 155.876 52.9558 154.45C52.9558 153.08 54.0969 151.882 55.5233 151.882Z" fill="white"/>
<path d="M82.9101 94.8266H92.039C93.123 94.8266 94.0359 95.7395 94.0359 96.8235C94.0359 97.9076 93.123 98.8205 92.039 98.8205H82.9101C81.826 98.8205 80.9131 97.9076 80.9131 96.8235C80.9131 95.7395 81.826 94.8266 82.9101 94.8266Z" fill="#4464E7" fill-opacity="0.33"/>
<path d="M82.3395 102.244H86.3334C87.1322 102.244 87.7598 102.871 87.7598 103.67C87.7598 104.469 87.1322 105.097 86.3334 105.097H82.3395C81.5407 105.097 80.9131 104.469 80.9131 103.67C80.9131 102.928 81.5407 102.244 82.3395 102.244Z" fill="#4464E7" fill-opacity="0.33"/>
<path d="M109.441 94.8266H118.57C119.54 94.8266 120.282 95.5683 120.282 96.5383C120.282 97.5082 119.54 98.2499 118.57 98.2499H109.441C108.471 98.2499 107.729 97.5082 107.729 96.5383C107.729 95.6254 108.471 94.8266 109.441 94.8266Z" fill="#4464E7" fill-opacity="0.33"/>
<path d="M187.037 155.876H196.166C197.136 155.876 197.877 156.618 197.877 157.588C197.877 158.558 197.136 159.3 196.166 159.3H187.037C186.067 159.3 185.325 158.558 185.325 157.588C185.325 156.675 186.067 155.876 187.037 155.876Z" fill="white"/>
<path d="M212.712 125.066H221.841C222.811 125.066 223.552 125.808 223.552 126.778C223.552 127.748 222.811 128.489 221.841 128.489H212.712C211.742 128.489 211 127.748 211 126.778C211 125.865 211.742 125.066 212.712 125.066Z" fill="#F5F5FC"/>
<path d="M212.141 95.3971H221.27C222.24 95.3971 222.982 96.1389 222.982 97.1088C222.982 98.0788 222.24 98.8205 221.27 98.8205H212.141C211.171 98.8205 210.43 98.0788 210.43 97.1088C210.43 96.1959 211.171 95.3971 212.141 95.3971Z" fill="#F5F5FC"/>
<path d="M186.466 95.3971H195.595C196.565 95.3971 197.307 96.1389 197.307 97.1088C197.307 98.0788 196.565 98.8205 195.595 98.8205H186.466C185.496 98.8205 184.755 98.0788 184.755 97.1088C184.755 96.1959 185.496 95.3971 186.466 95.3971Z" fill="#F5F5FC"/>
<path d="M110.012 105.097C111.272 105.097 112.294 104.075 112.294 102.814C112.294 101.554 111.272 100.532 110.012 100.532C108.751 100.532 107.729 101.554 107.729 102.814C107.729 104.075 108.751 105.097 110.012 105.097Z" fill="#4464E7" fill-opacity="0.33"/>
<path d="M161.932 101.103C163.193 101.103 164.214 100.081 164.214 98.8205C164.214 97.56 163.193 96.5383 161.932 96.5383C160.672 96.5383 159.65 97.56 159.65 98.8205C159.65 100.081 160.672 101.103 161.932 101.103Z" fill="#4464E7" fill-opacity="0.33"/>
<path d="M169.92 101.103C171.18 101.103 172.202 100.081 172.202 98.8205C172.202 97.56 171.18 96.5383 169.92 96.5383C168.66 96.5383 167.638 97.56 167.638 98.8205C167.638 100.081 168.66 101.103 169.92 101.103Z" fill="#4464E7" fill-opacity="0.33"/>
<path d="M169.92 129.631C171.18 129.631 172.202 128.609 172.202 127.348C172.202 126.088 171.18 125.066 169.92 125.066C168.66 125.066 167.638 126.088 167.638 127.348C167.638 128.609 168.66 129.631 169.92 129.631Z" fill="#4464E7" fill-opacity="0.33"/>
<path d="M161.932 129.631C163.193 129.631 164.214 128.609 164.214 127.348C164.214 126.088 163.193 125.066 161.932 125.066C160.672 125.066 159.65 126.088 159.65 127.348C159.65 128.609 160.672 129.631 161.932 129.631Z" fill="#4464E7" fill-opacity="0.33"/>
<path d="M169.349 158.729C170.61 158.729 171.632 157.707 171.632 156.447C171.632 155.186 170.61 154.165 169.349 154.165C168.089 154.165 167.067 155.186 167.067 156.447C167.067 157.707 168.089 158.729 169.349 158.729Z" fill="#4464E7" fill-opacity="0.33"/>
<path d="M161.362 158.729C162.622 158.729 163.644 157.707 163.644 156.447C163.644 155.186 162.622 154.165 161.362 154.165C160.101 154.165 159.079 155.186 159.079 156.447C159.079 157.707 160.101 158.729 161.362 158.729Z" fill="#4464E7" fill-opacity="0.33"/>
<path d="M91.7537 159.3C93.0141 159.3 94.0359 158.278 94.0359 157.017C94.0359 155.757 93.0141 154.735 91.7537 154.735C90.4933 154.735 89.4715 155.757 89.4715 157.017C89.4715 158.278 90.4933 159.3 91.7537 159.3Z" fill="#BAC5F4"/>
<path d="M83.7659 159.3C85.0263 159.3 86.0481 158.278 86.0481 157.017C86.0481 155.757 85.0263 154.735 83.7659 154.735C82.5055 154.735 81.4837 155.757 81.4837 157.017C81.4837 158.278 82.5055 159.3 83.7659 159.3Z" fill="#BAC5F4"/>
<path d="M161.932 70.2926C163.193 70.2926 164.214 69.2708 164.214 68.0104C164.214 66.75 163.193 65.7282 161.932 65.7282C160.672 65.7282 159.65 66.75 159.65 68.0104C159.65 69.2708 160.672 70.2926 161.932 70.2926Z" fill="#4464E7" fill-opacity="0.33"/>
<path d="M135.116 70.2926C136.376 70.2926 137.398 69.2708 137.398 68.0104C137.398 66.75 136.376 65.7282 135.116 65.7282C133.856 65.7282 132.834 66.75 132.834 68.0104C132.834 69.2708 133.856 70.2926 135.116 70.2926Z" fill="white"/>
<path d="M143.104 70.2926C144.364 70.2926 145.386 69.2708 145.386 68.0104C145.386 66.75 144.364 65.7282 143.104 65.7282C141.843 65.7282 140.822 66.75 140.822 68.0104C140.822 69.2708 141.843 70.2926 143.104 70.2926Z" fill="white"/>
<path d="M109.441 70.2926C110.701 70.2926 111.723 69.2708 111.723 68.0104C111.723 66.75 110.701 65.7282 109.441 65.7282C108.181 65.7282 107.159 66.75 107.159 68.0104C107.159 69.2708 108.181 70.2926 109.441 70.2926Z" fill="white"/>
<path d="M117.429 70.2926C118.689 70.2926 119.711 69.2708 119.711 68.0104C119.711 66.75 118.689 65.7282 117.429 65.7282C116.168 65.7282 115.147 66.75 115.147 68.0104C115.147 69.2708 116.168 70.2926 117.429 70.2926Z" fill="white"/>
<path d="M83.7659 70.2926C85.0263 70.2926 86.0481 69.2708 86.0481 68.0104C86.0481 66.75 85.0263 65.7282 83.7659 65.7282C82.5055 65.7282 81.4837 66.75 81.4837 68.0104C81.4837 69.2708 82.5055 70.2926 83.7659 70.2926Z" fill="white"/>
<path d="M91.7537 70.2926C93.0141 70.2926 94.0359 69.2708 94.0359 68.0104C94.0359 66.75 93.0141 65.7282 91.7537 65.7282C90.4933 65.7282 89.4715 66.75 89.4715 68.0104C89.4715 69.2708 90.4933 70.2926 91.7537 70.2926Z" fill="white"/>
<path d="M228.07 156.98H225.527V140.123L220.428 141.996V139.699L227.674 136.979H228.07V156.98ZM247.553 142.27C247.553 143.263 247.288 144.147 246.76 144.922C246.24 145.697 245.534 146.303 244.641 146.74C245.68 147.187 246.5 147.839 247.102 148.695C247.712 149.552 248.018 150.523 248.018 151.607C248.018 153.33 247.434 154.702 246.268 155.723C245.11 156.744 243.583 157.254 241.688 157.254C239.773 157.254 238.238 156.744 237.08 155.723C235.932 154.693 235.357 153.321 235.357 151.607C235.357 150.532 235.649 149.561 236.232 148.695C236.825 147.829 237.641 147.173 238.68 146.727C237.796 146.289 237.098 145.683 236.588 144.908C236.077 144.133 235.822 143.254 235.822 142.27C235.822 140.592 236.36 139.262 237.436 138.277C238.511 137.293 239.928 136.801 241.688 136.801C243.438 136.801 244.85 137.293 245.926 138.277C247.01 139.262 247.553 140.592 247.553 142.27ZM245.488 151.553C245.488 150.441 245.133 149.534 244.422 148.832C243.72 148.13 242.799 147.779 241.66 147.779C240.521 147.779 239.605 148.126 238.912 148.818C238.229 149.511 237.887 150.423 237.887 151.553C237.887 152.683 238.219 153.572 238.885 154.219C239.559 154.866 240.493 155.189 241.688 155.189C242.872 155.189 243.802 154.866 244.477 154.219C245.151 153.563 245.488 152.674 245.488 151.553ZM241.688 138.879C240.694 138.879 239.887 139.189 239.268 139.809C238.657 140.419 238.352 141.253 238.352 142.311C238.352 143.322 238.652 144.143 239.254 144.772C239.865 145.391 240.676 145.701 241.688 145.701C242.699 145.701 243.506 145.391 244.107 144.772C244.718 144.143 245.023 143.322 245.023 142.311C245.023 141.299 244.709 140.474 244.08 139.836C243.451 139.198 242.654 138.879 241.688 138.879Z" fill="#BCC6F0"/>
<path d="M217.562 56.4281L174.199 62.8183C172.545 63.0466 171.346 64.7012 171.575 66.527L177.965 117.307C178.193 119.132 179.734 120.388 181.388 120.102L224.751 113.712C226.405 113.484 227.603 111.829 227.375 110.003L220.985 59.2238C220.757 57.4551 219.216 56.1999 217.562 56.4281Z" fill="#4464E7" fill-opacity="0.33"/>
<path d="M238.159 195.073C239.471 195.359 243.921 193.818 244.663 193.077C244.891 192.848 245.119 192.107 245.291 191.821C245.462 190.851 245.918 191.365 246.318 191.251C247.63 190.965 251.11 189.996 252.708 190.908C252.993 191.65 253.05 192.335 253.221 192.791C253.678 194.674 253.906 196.557 254.077 198.44C254.191 199.638 253.45 200.665 252.365 200.779C252.023 200.779 251.624 200.779 251.281 200.722C248.486 199.98 242.894 199.809 240.726 198.839C237.075 197.869 235.021 195.815 238.159 195.073Z" fill="#4464E7"/>
<path d="M194.967 197.299C196.223 197.641 200.844 196.443 201.586 195.758C201.871 195.53 202.099 194.845 202.328 194.56C202.556 193.647 202.955 194.104 203.412 194.046C204.724 193.818 208.261 193.077 209.859 194.104C210.144 194.845 210.087 195.587 210.258 195.986C210.544 197.869 210.772 199.809 210.829 201.692C210.886 202.89 210.03 203.86 208.946 203.917C208.604 203.917 208.204 203.917 207.862 203.803C205.123 202.89 199.532 202.32 197.421 201.235C193.769 200.037 191.829 197.812 194.967 197.299Z" fill="#4464E7"/>
<path d="M252.936 191.022C250.768 191.365 245.462 191.422 245.462 191.422C245.462 191.422 245.119 188.626 243.522 183.263C241.867 177.843 233.651 160.783 233.651 160.783C231.94 157.987 230.171 152.225 230.171 152.225L227.717 130.144C227.717 130.144 214.652 152.168 214.88 157.188C215.051 162.209 211.856 181.722 211.856 181.722C211.514 184.632 209.916 194.332 209.916 194.332C207.52 193.989 205.066 193.932 202.613 194.104C202.955 190.11 204.268 173.621 204.268 173.621C204.268 173.621 205.123 160.84 205.295 153.08C205.466 145.321 210.601 128.889 214.024 121.415C214.481 120.159 214.88 118.847 215.165 117.535L245.633 121.7C244.948 123.811 244.378 125.922 243.978 128.09C242.21 137.847 240.954 154.222 240.954 154.222C245.747 160.041 248.714 171.053 248.714 171.053C250.597 177.671 252.936 191.022 252.936 191.022Z" fill="url(#paint0_linear)"/>
<path d="M219.045 55.8575C223.723 54.8876 228.573 56.7134 228.573 56.7134L229.372 56.9987L234.393 63.9594L229.771 62.6472C228.516 62.1907 226.12 61.449 224.979 61.5631C224.123 61.5061 222.183 61.9625 221.27 61.1067C220.585 60.7643 220.414 60.1367 218.988 58.5962C217.961 57.341 218.246 56.9987 217.847 56.8275C217.276 56.5422 217.733 55.9717 219.045 55.8575Z" fill="url(#paint1_linear)"/>
<path d="M202.442 117.421C202.499 117.135 203.412 117.307 203.526 117.078C204.496 115.595 205.694 113.655 208.147 112.742C208.832 112.514 209.574 112.343 210.315 112.229L211.97 115.367C211.742 115.937 211.514 116.451 211.171 116.907C210.144 118.391 208.033 120.388 204.153 119.817C203.298 119.76 202.328 118.448 202.442 117.421Z" fill="url(#paint2_linear)"/>
<path d="M237.132 47.6415C237.702 47.6415 249.399 57.398 249.513 58.4821C249.513 59.0527 249.57 61.5631 249.969 63.1607C250.369 64.7012 251.51 66.8693 251.51 66.8693C251.51 66.8693 250.483 68.9233 247.858 69.3227C245.348 69.7221 241.981 68.8092 241.981 68.8092C241.981 68.8092 242.78 63.3889 241.81 62.8183C240.954 62.3048 240.726 62.8183 237.873 60.2508C235.021 57.6833 235.933 51.0078 235.991 50.6084C235.991 50.152 236.561 47.6415 237.132 47.6415Z" fill="url(#paint3_linear)"/>
<path d="M223.781 93.3431C227.603 89.5775 230 77.9381 231.198 75.0283C232.396 72.1184 234.336 71.2626 235.135 70.9773C235.534 70.8061 237.588 70.1785 239.186 69.7221L227.832 62.0196C226.291 58.8815 229.315 56.9987 229.315 56.9987L242.21 63.9595V68.6951L246.375 67.9534L251.396 66.8693C252.936 66.4699 254.477 66.2417 256.074 66.0705C256.702 66.0135 257.386 66.0705 258.014 66.3558L258.356 66.4699C259.155 66.7552 259.783 67.3828 260.182 68.1816C260.981 70.0644 261.551 72.1184 261.78 74.2295C262.236 77.5958 259.84 85.1842 257.443 90.7186C256.359 93.0579 252.251 105.154 251.224 108.178C246.203 120.844 245.804 121.814 245.804 121.814C230.342 121.643 215.222 117.934 215.222 117.934C214.538 116.565 217.048 112.514 217.048 112.514L212.369 116.736C210.315 117.421 208.661 112.514 208.661 112.514C208.661 112.514 220.528 96.4812 223.781 93.3431Z" fill="url(#paint4_linear)"/>
<path d="M251.681 48.2121C251.453 47.6986 250.882 46.6145 250.54 46.2151C249.969 45.5875 249.399 44.9599 248.771 44.3893C248.2 43.99 246.774 43.1912 246.203 42.9059C244.264 42.2783 241.639 42.9059 239.699 43.02C237.93 42.9059 236.675 45.2452 235.99 46.7857C235.306 48.3262 236.618 48.155 236.504 49.3532C236.504 49.5814 237.075 49.9237 237.588 50.209C238.102 50.4943 239.528 53.0047 240.041 54.1459C240.555 51.2931 242.324 56.371 241.981 56.9986C242.666 57.5121 243.522 59.5662 244.834 60.1938C245.69 59.7944 247.345 58.1968 249.57 58.6533C249.741 58.1968 251.909 56.4851 252.137 53.5183C252.194 52.6624 252.365 49.5244 251.681 48.2121Z" fill="url(#paint5_linear)"/>
<path opacity="0.07" d="M245.005 61.1067C245.005 61.1067 243.065 62.9895 241.867 62.9895L242.153 64.5871L242.095 66.9263C242.095 66.9263 242.837 65.6141 243.807 64.3018C244.378 63.3318 244.834 62.2478 245.005 61.1067Z" fill="black"/>
<path opacity="0.07" d="M237.873 84.5566C237.873 84.5566 235.42 92.6014 227.774 100.989C220.129 109.376 218.303 111.087 218.303 111.087C218.303 111.087 216.763 113.199 217.219 114.625C217.733 116.051 221.042 111.316 228.516 107.607C232.795 105.496 234.222 101.901 236.219 96.8235C238.672 90.4333 239.243 89.064 239.585 86.7247C240.441 80.7338 237.873 84.5566 237.873 84.5566Z" fill="black"/>
<path opacity="0.07" d="M227.717 130.201C227.717 130.201 231.312 138.645 232.339 142.753C233.423 147.033 233.423 153.195 236.561 156.219C240.156 159.642 244.378 171.11 245.405 173.506C246.774 176.987 249.627 196.1 248.828 197.413C248.029 198.725 244.777 196.785 244.777 196.785C244.777 196.785 245.975 191.935 244.948 187.542C243.921 183.149 239.186 171.395 236.219 165.576C233.537 160.384 230.798 154.336 230.171 150.855C229.543 147.318 227.717 130.201 227.717 130.201Z" fill="black"/>
<path d="M47.8778 191.422L43.8839 192.335C43.8839 192.335 42.914 195.473 42.4576 197.185C42.4005 197.299 42.3434 197.584 42.2864 197.755C42.2293 198.04 42.1723 198.326 42.1723 198.611C42.2864 200.094 42.8569 201.407 44.1692 202.091C45.6527 202.833 46.7938 203.518 48.3913 202.091C49.9318 200.665 50.2171 199.752 49.5895 197.242C48.9619 194.731 47.8778 191.422 47.8778 191.422Z" fill="#4464E7"/>
<path d="M70.9854 196.614C68.3038 195.758 67.1627 192.449 67.1627 192.449L61.7424 192.164C61.7424 192.164 61.6283 195.53 61.4571 197.356C61.2859 199.809 61.7424 200.893 63.3399 200.722C65.508 200.551 74.4087 201.35 75.7781 200.437C77.6609 199.41 73.4958 197.413 70.9854 196.614Z" fill="#4464E7"/>
<path d="M39.5477 115.253C39.5477 115.253 37.5508 118.048 36.8661 125.523C36.2385 132.997 37.6649 147.204 38.2925 149.942C38.9772 152.681 41.6017 178.356 42.2864 180.239C42.9711 182.122 43.8269 192.335 43.8269 192.335L48.1061 192.449C48.1061 192.449 49.3613 179.098 49.3613 175.56C49.3613 172.023 51.13 138.645 51.0159 136.192C50.9018 133.739 51.4724 134.537 51.4724 134.537C51.4724 134.537 55.238 146.462 56.3221 148.459C57.4632 150.456 59.4031 154.336 59.4031 154.336C59.4031 154.336 59.8596 166.831 60.3731 174.077C60.8866 181.323 61.5142 192.734 61.5142 192.734L67.2768 192.62C67.2768 192.62 68.5891 173.563 68.5891 169.513C68.5891 165.519 69.7872 155.876 69.7872 154.735C69.7872 153.594 66.0216 134.138 66.0216 134.138L63.397 115.138L39.5477 115.253Z" fill="url(#paint6_linear)"/>
<path d="M46.3373 52.3201C44.3974 53.0618 41.887 62.7613 41.887 62.7613L41.8299 62.7042L40.7459 63.7883L41.2023 65.8423L43.0852 97.9647L52.8987 95.8536L61.5142 86.7247L66.8774 89.2351C66.8774 89.2351 67.2768 100.932 67.3338 101.559C67.3909 102.187 68.3038 119.817 68.3038 121.015C68.3608 122.27 73.61 127.805 74.4658 127.177C77.0333 125.351 72.7541 122.042 71.7271 121.186C71.0995 120.73 69.8443 104.298 69.7302 102.358C69.6161 100.418 72.6971 95.5113 67.3909 89.0069C63.5111 84.2713 61.4 72.1184 58.1479 58.3109C56.4362 51.1219 55.4092 49.0109 53.6975 49.0109C52.2141 49.125 50.103 50.9508 46.3373 52.3201Z" fill="url(#paint7_linear)"/>
<path d="M44.6827 79.7068C44.6257 79.8209 40.917 81.5326 39.3195 83.5296C37.7219 85.4695 36.4096 88.3223 36.4096 88.3223C36.4096 88.3223 34.0704 93.8567 32.4157 97.9647C31.5599 100.19 28.6501 109.205 32.1305 109.547C35.3826 109.832 42.5717 102.187 43.7128 100.76L44.968 97.9647C45.0821 97.6223 43.0281 93.8567 43.0852 93.5143C43.1422 92.9438 47.8778 90.2051 48.5625 91.8597C48.7907 92.4303 49.4183 93.9708 49.6466 94.4272C50.103 95.6254 43.2563 97.9076 43.2563 98.9346C43.2563 100.247 42.6858 105.04 41.7729 107.379C40.86 109.718 39.4336 115.31 39.4336 115.31L63.5111 115.367C63.5111 115.367 62.7123 104.64 63.0547 101.103C63.0547 101.103 64.0817 89.4063 64.7093 88.2652C65.3369 87.1241 66.3639 102.7 66.1927 105.895C66.0786 108.121 68.0756 121.529 68.6461 121.985C69.559 122.727 71.7842 121.243 71.7842 121.243C71.7842 121.243 71.6701 106.523 71.613 104.127C71.4989 101.673 71.6701 81.932 68.4179 78.3375C65.1657 74.8 64.3099 74.8571 61.6283 75.827C58.9467 76.7399 57.6344 77.6528 53.9828 78.2804C51.7576 78.6798 49.4183 78.3946 47.3643 77.4817C47.9349 75.4277 46.7367 78.9081 46.9079 77.9381" fill="url(#paint8_linear)"/>
<path d="M48.2202 46.7857C48.2202 46.7857 43.4275 46.9569 42.0582 51.6354C40.6888 56.314 40.5176 62.8754 40.4606 63.9024C40.4035 64.9865 40.9741 72.3466 40.3465 74.4006C39.7759 76.2264 38.2925 79.5357 37.3225 81.8749C36.9802 82.7878 36.6949 83.7578 36.5237 84.7277L36.4096 85.5265C36.6379 86.3253 37.5508 86.8388 38.3495 86.5535C38.4066 86.4965 38.4636 86.4965 38.5207 86.4965C38.9771 86.2682 39.4336 86.04 39.89 85.7547C41.3164 84.8989 43.1993 82.5596 44.6257 81.8179C46.1662 81.0762 47.9349 77.5387 48.1631 77.3105C48.3913 77.0823 48.3343 76.1694 48.3343 75.3135C48.5054 70.9202 47.6496 66.9263 46.6226 64.8153C45.5956 62.7042 43.2563 58.5962 44.8539 56.1999C46.5085 53.8035 49.8748 51.9207 50.0459 51.3501C50.2171 50.7796 50.2742 53.6324 52.1 54.6594C53.9257 55.6864 56.4362 58.425 56.4362 59.0527C56.4362 59.6803 57.0638 61.6202 55.2951 65.0435C53.5834 68.4669 52.2141 72.8031 54.6104 76.0553C57.0067 79.3074 62.9976 83.8148 63.397 84.8418C63.7964 85.8688 63.397 90.4333 63.2258 93.0008C63.0547 95.5683 68.0756 88.6075 67.9044 85.2983C67.7332 81.932 68.3038 80.5056 64.9375 75.4276C61.5712 70.3497 59.289 61.5061 59.2319 59.395C59.1178 57.2269 58.0908 51.3501 56.0368 49.6385C54.2681 48.2121 53.8687 46.7857 50.2171 46.7857C49.6466 46.6716 48.9048 46.7286 48.2202 46.7857Z" fill="url(#paint9_linear)"/>
<g opacity="0.07">
<path d="M46.0521 192.278C46.1091 192.392 46.1091 192.449 46.1091 192.563C46.1662 193.248 46.1091 194.902 45.3674 195.929C44.4545 197.299 46.6226 200.38 46.6226 201.121C46.6226 201.863 45.6527 202.548 44.9109 202.377C44.2263 202.148 41.3164 200.551 42.4576 197.013C42.914 195.587 43.1993 194.332 43.4275 193.59C43.5987 193.191 43.7128 192.791 43.8269 192.392C43.8839 192.221 43.8839 192.05 43.8839 191.821C43.8269 191.593 43.8269 191.308 43.8269 191.023C43.6557 189.653 37.9502 147.318 37.7219 145.72C37.5508 144.294 36.6949 135.336 36.809 130.087C36.752 129.631 36.752 129.174 36.752 128.775C36.752 128.661 36.809 128.147 36.809 127.919C36.8661 127.462 36.8661 126.949 36.9231 126.493C36.809 126.093 36.8661 126.093 36.9231 125.466C36.9802 124.838 36.9232 124.496 36.9802 124.096C37.5508 120.559 38.863 116.508 39.4907 115.367L39.6618 114.739C39.6618 114.739 41.0882 109.376 41.6017 108.349C42.0011 107.436 43.2563 102.7 43.0852 101.73C43.0281 101.16 44.968 99.0487 44.968 99.0487L45.3674 98.7064C45.5386 98.6493 45.7668 98.7064 45.938 98.7634C46.3373 98.9346 47.992 97.5082 48.2772 98.4211C50.2171 104.583 51.0159 107.208 47.5926 110.916C44.1692 114.625 47.3073 117.877 47.3643 120.502C47.5355 126.892 44.3974 126.207 44.2263 130.201C44.0551 134.195 44.911 137.048 44.968 139.159C45.1392 146.006 45.0251 147.375 44.6827 150.057C44.3404 152.738 42.4576 157.816 44.5116 167.858C46.5656 177.9 46.2803 178.756 46.0521 184.461C45.8238 190.053 46.0521 192.278 46.0521 192.278Z" fill="black"/>
</g>
<path d="M42.8569 88.7787L42.914 88.7216C43.1422 88.6075 44.5686 87.8658 45.5956 87.4664C46.7367 87.01 48.049 90.8327 48.3914 91.5744C48.4484 91.6315 48.4484 91.6315 48.1631 91.6885C47.3643 91.8026 46.5085 91.9168 45.7668 92.145C44.6257 92.4303 43.3134 93.3432 43.2563 93.3432C43.1993 93.4002 42.8569 92.6585 42.1723 90.9468C42.0011 90.5474 41.7158 89.5204 42.0011 89.2922L42.8569 88.7787Z" fill="#EFEFEF"/>
<path opacity="0.07" d="M51.5294 68.638C52.2711 68.9233 53.0699 68.7521 53.6405 68.1816C54.6104 67.2116 53.2981 70.5779 53.4693 71.3196C53.6975 72.0043 51.5294 68.638 51.5294 68.638Z" fill="black"/>
<path d="M44.968 97.6223C44.968 97.6223 49.5324 94.6554 49.5895 94.7695C49.7036 95.0548 50.103 96.1389 50.103 96.1389C50.103 96.1389 50.4453 96.8235 50.3312 97.0518C50.2171 97.28 45.8809 99.1058 45.8809 99.1058C45.7097 99.0487 45.5385 98.9917 45.4815 98.8205C45.3103 98.4782 45.1392 98.0788 44.968 97.6223Z" fill="#EFEFEF"/>
</g>
<defs>
<linearGradient id="paint0_linear" x1="252.91" y1="155.956" x2="202.515" y2="155.956" gradientUnits="userSpaceOnUse">
<stop stop-color="#4464E7"/>
<stop offset="1" stop-color="#4B45BD"/>
</linearGradient>
<linearGradient id="paint1_linear" x1="234.326" y1="59.7475" x2="217.565" y2="59.7475" gradientUnits="userSpaceOnUse">
<stop stop-color="#F87B58"/>
<stop offset="0.41" stop-color="#F89453"/>
<stop offset="0.94" stop-color="#F8C548"/>
</linearGradient>
<linearGradient id="paint2_linear" x1="212.004" y1="116.115" x2="202.42" y2="116.115" gradientUnits="userSpaceOnUse">
<stop stop-color="#F87B58"/>
<stop offset="0.41" stop-color="#F89453"/>
<stop offset="0.94" stop-color="#F8C548"/>
</linearGradient>
<linearGradient id="paint3_linear" x1="251.453" y1="58.5561" x2="235.689" y2="58.5561" gradientUnits="userSpaceOnUse">
<stop stop-color="#F87B58"/>
<stop offset="0.41" stop-color="#F89453"/>
<stop offset="0.94" stop-color="#F8C548"/>
</linearGradient>
<linearGradient id="paint4_linear" x1="261.805" y1="89.363" x2="208.599" y2="89.363" gradientUnits="userSpaceOnUse">
<stop stop-color="#E5A4ED"/>
<stop offset="1" stop-color="#4464E7"/>
</linearGradient>
<linearGradient id="paint5_linear" x1="253.413" y1="55.0918" x2="238.148" y2="48.4683" gradientUnits="userSpaceOnUse">
<stop stop-color="#33BCE3"/>
<stop offset="1" stop-color="#4464E7"/>
</linearGradient>
<linearGradient id="paint6_linear" x1="36.7332" y1="154.016" x2="69.9291" y2="154.016" gradientUnits="userSpaceOnUse">
<stop stop-color="#4B45BD"/>
<stop offset="1" stop-color="#58CAEA"/>
</linearGradient>
<linearGradient id="paint7_linear" x1="40.7542" y1="88.2072" x2="75.3333" y2="88.2072" gradientUnits="userSpaceOnUse">
<stop stop-color="#F87B58"/>
<stop offset="0.5" stop-color="#F8C548"/>
<stop offset="1" stop-color="#F89C51"/>
</linearGradient>
<linearGradient id="paint8_linear" x1="30.5054" y1="98.7659" x2="71.7092" y2="98.7659" gradientUnits="userSpaceOnUse">
<stop stop-color="#4464E7"/>
<stop offset="1" stop-color="#2FEC68"/>
</linearGradient>
<linearGradient id="paint9_linear" x1="36.4398" y1="70.119" x2="68.0633" y2="70.119" gradientUnits="userSpaceOnUse">
<stop stop-color="#4B45BD"/>
<stop offset="1" stop-color="#58CAEA"/>
</linearGradient>
<clipPath id="clip0">
<rect width="278.391" height="208.938" fill="white"/>
</clipPath>
</defs>
</svg>
