<svg xmlns="http://www.w3.org/2000/svg" viewBox="0 0 216.28 33.71"><defs><style>.cls-1{fill:#4464e6;}.cls-2{fill:#3c474a;}</style></defs><title>Asset 1</title><g id="Layer_2" data-name="Layer 2"><g id="Layer_1-2" data-name="Layer 1"><path class="cls-1" d="M65.84,0h0a4,4,0,0,1,4,4V8a0,0,0,0,1,0,0h-4a4,4,0,0,1-4-4V4a4,4,0,0,1,4-4Z" transform="translate(61.8 69.87) rotate(-90)"/><rect class="cls-2" width="53.45" height="8" rx="4"/><rect class="cls-2" x="13.49" y="12.87" width="39.95" height="8" rx="4"/><rect class="cls-2" x="13.49" y="25.71" width="39.95" height="8" rx="4"/><rect class="cls-2" x="53.18" y="19.69" width="20.83" height="8" rx="4" transform="translate(107.98 -27.65) rotate(110.41)"/><path class="cls-2" d="M123.69,33h-6.4V13.83L106,32a2.65,2.65,0,0,1-1.16,1.06,3.78,3.78,0,0,1-1.6.35,3.56,3.56,0,0,1-1.55-.35A2.77,2.77,0,0,1,100.56,32L89.24,13.83V33H82.88V3.31a2.7,2.7,0,0,1,.65-1.8A3.14,3.14,0,0,1,85.23.45a3.51,3.51,0,0,1,1-.07,3.55,3.55,0,0,1,1,.2,3,3,0,0,1,.87.47,2.88,2.88,0,0,1,.66.73l14.48,23.1,14.48-23.1A3,3,0,0,1,119.28.57a3.63,3.63,0,0,1,2.07-.12A3.24,3.24,0,0,1,123,1.51a2.7,2.7,0,0,1,.66,1.8Z"/><path class="cls-2" d="M175.86.81,170,31a2.93,2.93,0,0,1-.88,1.54,3.16,3.16,0,0,1-1.66.83,3.49,3.49,0,0,1-1.9-.2A3.06,3.06,0,0,1,164.14,32L152.5,14.49,140.84,32a2.86,2.86,0,0,1-1.14,1,3.43,3.43,0,0,1-1.55.36,3.24,3.24,0,0,1-2-.67A2.77,2.77,0,0,1,135,31L129.12.81h6.46l4.21,21.26,10-14.68a2.86,2.86,0,0,1,1.14-1A3.43,3.43,0,0,1,152.5,6a3.33,3.33,0,0,1,1.54.36,3.2,3.2,0,0,1,1.18,1l10,14.68L169.4.81Z"/><path class="cls-2" d="M216.28,19.54A13.06,13.06,0,0,1,215.17,25a12.76,12.76,0,0,1-3.07,4.25,14.31,14.31,0,0,1-4.64,2.8,16.64,16.64,0,0,1-5.85,1H184.44a3.54,3.54,0,0,1-1.27-.23,3,3,0,0,1-1-.62,2.76,2.76,0,0,1-.92-2.1V3.76a2.79,2.79,0,0,1,.24-1.15,3,3,0,0,1,.68-.94,3,3,0,0,1,1-.63,3.54,3.54,0,0,1,1.27-.23h17.17a16.64,16.64,0,0,1,5.85,1,14.31,14.31,0,0,1,4.64,2.8,12.7,12.7,0,0,1,3.07,4.26,13.11,13.11,0,0,1,1.11,5.4Zm-6.35-5.26a8,8,0,0,0-.6-3.12,6.9,6.9,0,0,0-1.7-2.41A7.83,7.83,0,0,0,205,7.2a9.88,9.88,0,0,0-3.39-.55h-14V27.17h14a9.88,9.88,0,0,0,3.39-.55,7.83,7.83,0,0,0,2.63-1.55,7,7,0,0,0,1.7-2.4,7.9,7.9,0,0,0,.6-3.13Z"/></g></g></svg>