<svg xmlns="http://www.w3.org/2000/svg" viewBox="0 0 418.21 389.17"><defs><style>.cls-1,.cls-5{fill:#90a4ae;}.cls-1,.cls-2,.cls-8{opacity:0.25;}.cls-2,.cls-3,.cls-6,.cls-8,.cls-9{fill:none;}.cls-2{stroke:#707070;stroke-width:15.1px;}.cls-2,.cls-3,.cls-8,.cls-9{stroke-linecap:round;}.cls-2,.cls-6,.cls-8{stroke-miterlimit:10;}.cls-3,.cls-6,.cls-8{stroke:#000;}.cls-3,.cls-9{stroke-linejoin:round;}.cls-3,.cls-6,.cls-8,.cls-9{stroke-width:12.08px;}.cls-4{fill:#4464e6;}.cls-7{opacity:0.5;}.cls-9{stroke:#fff;opacity:0.75;}</style></defs><title>Asset 3</title><g id="Layer_2" data-name="Layer 2"><g id="Illustrations"><g id="AI"><circle class="cls-1" cx="209.34" cy="194.59" r="194.59"/><line class="cls-2" x1="333.42" y1="334.17" x2="83.39" y2="334.17"/><line class="cls-3" x1="412.18" y1="322.41" x2="396.99" y2="322.41"/><line class="cls-3" x1="359.6" y1="321.89" x2="58.91" y2="321.89"/><line class="cls-3" x1="21.23" y1="322.41" x2="6.04" y2="322.41"/><path id="shock_color" class="cls-4" d="M225.37,264.68V83c-1.07.84-2.12,1.67-3.16,2.46-16.33,12.44-33.48,23.52-52.42,31.63-14.34,6.13-29.15,9.69-44.91,9.29-14.59-.37-29.21-.07-43.81-.09a24.46,24.46,0,0,0-19.51,9.21c-4.87,5.77-7.3,12.67-8.49,20a128.76,128.76,0,0,0-.28,37.5,45.49,45.49,0,0,0,4.81,15.54c4.22,7.94,10.19,13,18.33,14.61a30.18,30.18,0,0,0,6.38.65c13.6-.11,27.19-.07,40.79,0h8.48a64.08,64.08,0,0,1,8.06.56,100.64,100.64,0,0,1,14.85,3.12,149.79,149.79,0,0,1,26.45,10.7c15.93,8.08,30.62,18.07,44.64,29.07a13.45,13.45,0,0,1-.2-1.69C225.37,265.28,225.37,265,225.37,264.68Z"/><path class="cls-5" d="M131.58,223.82h-4.09L141.07,260h14.15a4.66,4.66,0,0,0,4.17-6.72c-4.68-9.71-5.08-20.34-4.9-25.81a100.64,100.64,0,0,0-14.85-3.12A64.08,64.08,0,0,0,131.58,223.82Z"/><path class="cls-5" d="M123.1,223.8c-13.6,0-27.19-.08-40.79,0a30.18,30.18,0,0,1-6.38-.65c11.7,24.72,30.37,63.39,41,86.05a2.8,2.8,0,0,0,2.57,1.61H156a2.86,2.86,0,0,0,2.68-3.86l-17.61-47-13.58-36.22Z"/><path class="cls-5" d="M254.15,153.4h0V190h0a18.3,18.3,0,0,0,0-36.6Z"/><path class="cls-5" d="M254.13,153.4V93.75c0-5.33.05-10.67,0-16a14.3,14.3,0,0,0-18.45-13.58c-6.32,1.87-10.28,7.46-10.29,14.54v186c0,.3,0,.6,0,.9a13.45,13.45,0,0,0,.2,1.69,14.32,14.32,0,0,0,28.54-2c0-10.15,0-41.73,0-75.24Z"/><path class="cls-6" d="M131.58,223.82h-4.09L141.07,260h14.15a4.66,4.66,0,0,0,4.17-6.72c-4.68-9.71-5.08-20.34-4.9-25.81a100.64,100.64,0,0,0-14.85-3.12A64.08,64.08,0,0,0,131.58,223.82Z"/><path class="cls-5" d="M141.84,125.32a95.25,95.25,0,0,1-17,1.1c-14.59-.37-29.21-.07-43.81-.09a24.46,24.46,0,0,0-19.51,9.21c-4.87,5.77-7.3,12.67-8.49,20a128.76,128.76,0,0,0-.28,37.5,45.49,45.49,0,0,0,4.81,15.54c4.22,7.94,10.19,13,18.33,14.61a30.18,30.18,0,0,0,6.38.65c13.6-.11,27.19-.07,40.79,0h8.48a64.08,64.08,0,0,1,8.06.56c.74.09,1.46.26,2.2.38Z"/><path class="cls-6" d="M123.1,223.8c-13.6,0-27.19-.08-40.79,0a30.18,30.18,0,0,1-6.38-.65c11.7,24.72,30.37,63.39,41,86.05a2.8,2.8,0,0,0,2.57,1.61H156a2.86,2.86,0,0,0,2.68-3.86l-17.61-47-13.58-36.22Z"/><path class="cls-6" d="M225.37,264.68V83c-1.07.84-2.12,1.67-3.16,2.46-16.33,12.44-33.48,23.52-52.42,31.63-14.34,6.13-29.15,9.69-44.91,9.29-14.59-.37-29.21-.07-43.81-.09a24.46,24.46,0,0,0-19.51,9.21c-4.87,5.77-7.3,12.67-8.49,20a128.76,128.76,0,0,0-.28,37.5,45.49,45.49,0,0,0,4.81,15.54c4.22,7.94,10.19,13,18.33,14.61a30.18,30.18,0,0,0,6.38.65c13.6-.11,27.19-.07,40.79,0h8.48a64.08,64.08,0,0,1,8.06.56,100.64,100.64,0,0,1,14.85,3.12,149.79,149.79,0,0,1,26.45,10.7c15.93,8.08,30.62,18.07,44.64,29.07a13.45,13.45,0,0,1-.2-1.69C225.37,265.28,225.37,265,225.37,264.68Z"/><line class="cls-3" x1="79.26" y1="157.59" x2="120.98" y2="157.59"/><line class="cls-3" x1="79.26" y1="175.16" x2="120.98" y2="175.16"/><line class="cls-3" x1="79.26" y1="192.73" x2="120.98" y2="192.73"/><path class="cls-3" d="M254.15,153.4h0V190h0a18.3,18.3,0,0,0,0-36.6Z"/><path class="cls-3" d="M254.13,153.4V93.75c0-5.33.05-10.67,0-16a14.3,14.3,0,0,0-18.45-13.58c-6.32,1.87-10.28,7.46-10.29,14.54v186c0,.3,0,.6,0,.9a13.45,13.45,0,0,0,.2,1.69,14.32,14.32,0,0,0,28.54-2c0-10.15,0-41.73,0-75.24Z"/><line class="cls-6" x1="145.5" y1="125.32" x2="145.5" y2="223.18"/><path class="cls-7" d="M123.1,223.8c-13.6,0-27.19-.08-40.79,0a30.18,30.18,0,0,1-6.38-.65c11.7,24.72,30.37,63.39,41,86.05a2.8,2.8,0,0,0,2.57,1.61H156a2.86,2.86,0,0,0,2.68-3.86l-17.61-47-13.58-36.22Z"/><path class="cls-7" d="M254.13,153.4V93.75c0-5.33.05-10.67,0-16a14.3,14.3,0,0,0-18.45-13.58c-6.32,1.87-10.28,7.46-10.29,14.54v186c0,.3,0,.6,0,.9a13.45,13.45,0,0,0,.2,1.69,14.32,14.32,0,0,0,28.54-2c0-10.15,0-41.73,0-75.24Z"/><line class="cls-3" x1="306.53" y1="171.7" x2="374.06" y2="171.7"/><line class="cls-3" x1="290.07" y1="116.52" x2="337.82" y2="68.78"/><line class="cls-3" x1="290.07" y1="226.88" x2="337.82" y2="274.63"/><path class="cls-8" d="M52,185c.71,5.43,3.06,10.68,5.64,15.54,4.22,7.94,10.19,13,18.33,14.61a30.18,30.18,0,0,0,6.38.65c13.6-.11,27.19-.07,40.79,0h8.48a64.08,64.08,0,0,1,8.06.56,100.64,100.64,0,0,1,14.85,3.12,149.79,149.79,0,0,1,26.45,10.7c15.93,8.08,44.44,27.38,44.44,27.38"/><path class="cls-9" d="M167.27,139.19s22.93-7.78,39.5-19.37"/></g></g></g></svg>