<svg width="616" height="462" viewBox="0 0 616 462" fill="none" xmlns="http://www.w3.org/2000/svg">
<g clip-path="url(#clip0)">
<path d="M24.4258 234.067C15.631 217.887 13.1043 198.985 17.4288 181.104C29.7221 130.425 64.5127 41.4562 156.591 54.041C284.383 71.5334 321.554 75.9066 373.983 59.4831C426.412 43.0596 517.081 43.1082 545.457 80.2311C562.658 102.728 620.821 203.65 583.698 238.635C546.575 273.62 601.676 342.812 603.377 379.546C605.078 416.28 552.066 421.042 485.4 422.16C418.735 423.277 31.4714 410.547 31.4714 410.547C31.4714 410.547 -18.1877 324.931 21.1703 294.368C45.5139 275.417 34.5812 252.775 24.4258 234.067Z" fill="#33BCE3" fill-opacity="0.11"/>
<path d="M63.1522 370.508C54.6489 370.217 22.7252 374.59 20.8302 376.242C20.3443 376.679 13.3473 397.476 44.1048 424.298C93.278 467.251 225.54 468.709 268.397 452.383C330.592 428.671 398.764 473.131 540.015 456.124C585.156 450.682 615.33 381.538 594.825 372.549C582.532 367.204 567.809 381.392 555.467 375.173C541.23 367.982 512.416 363.511 494.584 369.002C493.855 369.196 493.417 369.974 493.612 370.703C493.806 371.383 494.486 371.82 495.215 371.674L485.837 374.687C475.391 382.461 477.723 372.112 453.233 370.8L381.029 369.002C355.227 369.779 255.861 374.153 216.988 372.598H195.609C181.323 370.8 144.346 369.974 142.986 369.925L63.1522 370.508Z" fill="#33BCE3" fill-opacity="0.11"/>
<path d="M54.2821 368.945C54.2821 368.945 58.5088 350.165 36.2222 340.108C13.9837 330.05 12.927 330.168 8.50812 329.029C5.96246 328.321 3.36876 329.814 6.29868 332.8C9.22859 335.825 7.54749 336.572 13.4073 337.907C19.2672 339.243 20.1317 345.058 23.0616 346.511C25.9916 347.965 28.5372 348.358 37.4711 351.501C45.5884 354.369 52.5049 362.462 52.5049 365.291C52.5049 368.12 60.4301 369.102 60.4301 369.102L54.2821 368.945Z" fill="url(#paint0_linear)"/>
<path d="M53.5136 366.312C53.5136 366.312 59.1813 349.026 39.6805 339.675C20.1798 330.325 13.4074 330.443 9.51682 329.304C7.30738 328.636 13.3593 330.914 15.905 333.664C18.4507 336.454 17.8263 335.825 22.3892 337.868C27.6727 340.265 29.8821 342.583 33.0042 343.054C37.5191 343.761 36.1743 347.612 44.0034 350.48C51.064 353.112 51.9766 360.144 51.9766 362.777C51.9766 365.448 58.8931 366.312 58.8931 366.312H53.5136Z" fill="url(#paint1_linear)"/>
<path d="M73.1104 363.759L75.3198 362.03C76.3765 361.244 77.6734 360.655 79.0663 360.341C85.9348 358.848 107.597 353.308 116.579 339.911C116.675 339.793 116.579 339.636 116.435 339.597H116.387C116.339 339.597 116.291 339.558 116.291 339.558C113.313 339.361 97.8946 339.165 77.2891 353.544C76.9049 353.78 76.5686 354.094 76.2805 354.369C75.7521 354.958 74.8875 355.98 74.5033 356.491C73.9749 357.276 75.0316 358.573 73.5907 359.712C72.1498 360.851 69.0277 363.719 69.0277 363.719L71.5734 365.252L73.1104 363.759Z" fill="url(#paint2_linear)"/>
<path d="M61.3907 362.659C61.3907 362.659 67.2985 319.403 51.16 305.81C36.3183 293.316 36.0781 304.788 36.1261 306.753C36.1261 306.949 36.2222 307.067 36.2702 307.224C39.7765 312.567 40.9773 318.735 39.7285 324.707C38.1915 330.954 49.1427 330.129 50.1033 336.297C51.0639 342.465 54.8584 351.972 54.4741 356.333C54.0899 360.694 54.0419 364.937 54.0419 364.937L59.9978 365.095L61.3907 362.659Z" fill="url(#paint3_linear)"/>
<path d="M61.3427 362.777C61.3907 362.698 61.4387 362.58 61.4387 362.462C61.823 359.634 66.7702 318.892 51.2081 305.77C36.4624 293.316 36.2223 304.592 36.3183 306.635C36.3664 306.87 36.5104 307.106 36.6545 307.303C37.7593 308.599 42.6104 314.256 46.9333 313.628C58.8931 311.899 48.3262 323.646 54.8104 329.932C59.9978 334.882 58.2687 352.012 57.8844 356.412C57.6443 358.887 57.1159 361.323 56.3474 363.719C56.2033 364.348 56.7317 364.937 57.4521 365.055C57.5002 365.055 57.5482 365.055 57.5482 365.055C57.6443 365.055 57.7403 365.094 57.8364 365.094H58.9411C59.6136 365.134 60.1899 364.859 60.4781 364.387L61.3427 362.777Z" fill="url(#paint4_linear)"/>
<path d="M67.1545 365.291C67.1545 365.291 68.2112 353.308 76.7608 346.001C79.1623 343.997 82.1883 342.622 85.5025 341.993C88.0482 341.522 92.2269 339.833 95.8773 334.214C95.8773 334.214 102.746 326.239 109.662 323.843C116.531 321.407 109.662 321.132 109.662 321.132C109.662 321.132 89.9694 324.196 77.3371 333.625C76.5206 334.214 75.7041 334.765 74.7915 335.236C71.5253 337.082 62.4474 343.958 62.8317 364.112L67.1545 365.291Z" fill="url(#paint5_linear)"/>
<path d="M84.2536 364.348C84.2536 364.348 84.5418 362.894 82.1883 362.934C80.1229 363.012 45.3482 362.777 45.3482 362.777C45.3482 362.777 43.7151 362.777 43.8112 363.798C43.9072 364.819 49.1907 388.51 49.671 388.981C49.9112 389.296 50.2474 389.531 50.6797 389.61C51.3521 389.767 75.7521 389.649 75.7521 389.649C76.3284 389.571 76.7607 389.217 76.8088 388.746C76.8088 388.746 84.3016 364.623 84.2536 364.348Z" fill="url(#paint6_linear)"/>
<path d="M471.384 88.7728L375.435 102.903C371.774 103.407 369.123 107.066 369.628 111.103L383.768 223.386C384.273 227.423 387.681 230.199 391.343 229.568L487.291 215.438C490.952 214.933 493.603 211.275 493.099 207.238L478.959 94.9547C478.454 91.0437 475.045 88.2682 471.384 88.7728Z" fill="#33BCE3" fill-opacity="0.5"/>
<path d="M516.959 395.343C519.863 395.974 529.71 392.567 531.352 390.927C531.857 390.423 532.362 388.783 532.74 388.152C533.119 386.007 534.129 387.143 535.013 386.89C537.917 386.259 545.618 384.115 549.153 386.133C549.784 387.773 549.91 389.287 550.289 390.297C551.299 394.46 551.804 398.623 552.183 402.786C552.435 405.436 550.794 407.707 548.395 407.959C547.638 407.959 546.754 407.959 545.996 407.833C539.81 406.193 527.438 405.814 522.641 403.67C514.561 401.525 510.016 396.983 516.959 395.343Z" fill="#4B44BE"/>
<path d="M421.39 400.263C424.167 401.02 434.393 398.371 436.034 396.857C436.666 396.352 437.171 394.838 437.676 394.207C438.181 392.189 439.064 393.198 440.074 393.072C442.978 392.567 450.805 390.927 454.34 393.198C454.972 394.838 454.845 396.478 455.224 397.362C455.855 401.525 456.36 405.814 456.487 409.978C456.613 412.627 454.719 414.772 452.32 414.898C451.563 414.898 450.679 414.898 449.922 414.646C443.862 412.627 431.489 411.365 426.818 408.968C418.738 406.319 414.446 401.399 421.39 400.263Z" fill="#4B44BE"/>
<path d="M549.658 386.386C544.86 387.143 533.119 387.269 533.119 387.269C533.119 387.269 532.362 381.087 528.827 369.228C525.166 357.242 506.986 319.52 506.986 319.52C503.198 313.339 499.285 300.596 499.285 300.596L493.856 251.772C493.856 251.772 464.945 300.47 465.45 311.572C465.829 322.674 458.759 365.821 458.759 365.821C458.002 372.256 454.467 393.703 454.467 393.703C449.164 392.946 443.736 392.82 438.307 393.198C439.064 384.367 441.968 347.907 441.968 347.907C441.968 347.907 443.862 319.647 444.241 302.489C444.619 285.331 455.982 248.997 463.556 232.47C464.566 229.694 465.45 226.792 466.081 223.891L533.498 233.1C531.983 237.768 530.72 242.436 529.837 247.23C525.923 268.804 523.146 305.012 523.146 305.012C533.75 317.88 540.315 342.229 540.315 342.229C544.481 356.864 549.658 386.386 549.658 386.386Z" fill="url(#paint7_linear)"/>
<path d="M474.666 87.5112C485.019 85.3665 495.75 89.4036 495.75 89.4036L497.517 90.0344L508.627 105.426L498.401 102.524C495.623 101.515 490.321 99.8749 487.796 100.127C485.902 100.001 481.61 101.01 479.59 99.1179C478.075 98.361 477.696 96.9732 474.54 93.5669C472.268 90.7913 472.899 90.0344 472.015 89.6559C470.753 89.0251 471.763 87.7635 474.666 87.5112Z" fill="url(#paint8_linear)"/>
<path d="M437.928 223.638C438.054 223.008 440.074 223.386 440.327 222.881C442.473 219.601 445.124 215.312 450.553 213.293C452.068 212.789 453.709 212.41 455.35 212.158L459.011 219.097C458.507 220.358 458.002 221.494 457.244 222.503C454.972 225.783 450.3 230.199 441.716 228.937C439.822 228.811 437.676 225.909 437.928 223.638Z" fill="url(#paint9_linear)"/>
<path d="M514.687 69.3441C515.949 69.3441 541.83 90.9175 542.083 93.3146C542.083 94.5762 542.209 100.127 543.093 103.66C543.976 107.066 546.501 111.86 546.501 111.86C546.501 111.86 544.229 116.402 538.422 117.285C532.867 118.168 525.418 116.15 525.418 116.15C525.418 116.15 527.185 104.164 525.039 102.903C523.146 101.767 522.641 102.903 516.328 97.2255C510.016 91.5483 512.036 76.7875 512.162 75.9044C512.162 74.8951 513.424 69.3441 514.687 69.3441Z" fill="url(#paint10_linear)"/>
<path d="M485.145 170.399C493.604 162.072 498.906 136.335 501.557 129.901C504.208 123.467 508.501 121.575 510.268 120.944C511.152 120.565 515.697 119.177 519.232 118.168L494.109 101.137C490.7 94.1977 497.391 90.0344 497.391 90.0344L525.923 105.426V115.897L535.139 114.257L546.249 111.86C549.658 110.977 553.066 110.472 556.601 110.094C557.99 109.968 559.505 110.094 560.894 110.725L561.651 110.977C563.419 111.608 564.807 112.996 565.691 114.762C567.459 118.925 568.721 123.467 569.226 128.135C570.236 135.578 564.934 152.358 559.631 164.595C557.233 169.768 548.143 196.514 545.87 203.2C534.76 231.208 533.877 233.353 533.877 233.353C499.663 232.974 466.208 224.774 466.208 224.774C464.693 221.746 470.248 212.789 470.248 212.789L459.895 222.125C455.35 223.638 451.689 212.789 451.689 212.789C451.689 212.789 477.949 177.338 485.145 170.399Z" fill="url(#paint11_linear)"/>
<path d="M546.88 70.6057C546.375 69.4702 545.113 67.0732 544.355 66.19C543.093 64.8023 541.83 63.4145 540.441 62.1529C539.179 61.2698 536.023 59.5035 534.76 58.8727C530.468 57.485 524.66 58.8727 520.368 59.1251C516.454 58.8727 513.677 64.0453 512.162 67.4517C510.647 70.858 513.551 70.4795 513.298 73.1289C513.298 73.6335 514.561 74.3905 515.697 75.0213C516.833 75.6521 519.989 81.2032 521.126 83.7264C522.262 77.4183 526.175 88.6466 525.418 90.0344C526.933 91.1698 528.827 95.7116 531.73 97.0994C533.624 96.2163 537.285 92.6838 542.209 93.6931C542.588 92.6838 547.385 88.899 547.89 82.3386C548.016 80.4462 548.395 73.5074 546.88 70.6057Z" fill="url(#paint12_linear)"/>
<path opacity="0.07" d="M532.109 99.118C532.109 99.118 527.817 103.281 525.165 103.281L525.797 106.814L525.67 111.986C525.67 111.986 527.312 109.085 529.458 106.183C530.72 104.038 531.73 101.641 532.109 99.118Z" fill="black"/>
<path opacity="0.07" d="M516.328 150.97C516.328 150.97 510.899 168.759 493.982 187.304C477.065 205.85 473.025 209.635 473.025 209.635C473.025 209.635 469.616 214.303 470.626 217.457C471.763 220.611 479.085 210.139 495.623 201.939C505.092 197.271 508.248 189.323 512.667 178.094C518.096 163.964 519.358 160.937 520.116 155.764C522.009 142.517 516.328 150.97 516.328 150.97Z" fill="black"/>
<path opacity="0.07" d="M493.856 251.898C493.856 251.898 501.81 270.57 504.082 279.654C506.481 289.116 506.481 302.741 513.424 309.428C521.378 316.997 530.72 342.356 532.993 347.654C536.023 355.35 542.335 397.614 540.568 400.516C538.8 403.417 531.604 399.128 531.604 399.128C531.604 399.128 534.255 388.404 531.983 378.69C529.71 368.975 519.232 342.986 512.667 330.118C506.733 318.637 500.673 305.264 499.285 297.569C497.896 289.747 493.856 251.898 493.856 251.898Z" fill="black"/>
<path d="M109.536 368.963L100.699 370.981C100.699 370.981 98.5526 377.92 97.5426 381.705C97.4164 381.957 97.2901 382.588 97.1639 382.967C97.0377 383.597 96.9114 384.228 96.9114 384.859C97.1639 388.139 98.4264 391.041 101.33 392.555C104.613 394.195 107.138 395.709 110.672 392.555C114.081 389.401 114.712 387.382 113.324 381.831C111.935 376.28 109.536 368.963 109.536 368.963Z" fill="#4B44BE"/>
<path d="M160.667 380.443C154.733 378.551 152.208 371.234 152.208 371.234L140.214 370.603C140.214 370.603 139.962 378.046 139.583 382.083C139.204 387.508 140.214 389.905 143.749 389.527C148.547 389.148 168.242 390.915 171.271 388.896C175.438 386.625 166.222 382.21 160.667 380.443Z" fill="#4B44BE"/>
<path d="M91.104 200.538C91.104 200.538 86.6854 206.72 85.1704 223.247C83.7816 239.774 86.9378 271.188 88.3266 277.244C89.8416 283.3 95.649 340.072 97.1639 344.235C98.6789 348.399 100.573 370.981 100.573 370.981L110.041 371.234C110.041 371.234 112.819 341.712 112.819 333.89C112.819 326.068 116.732 252.264 116.48 246.839C116.227 241.414 117.49 243.181 117.49 243.181C117.49 243.181 125.822 269.548 128.221 273.964C130.746 278.379 135.038 286.958 135.038 286.958C135.038 286.958 136.048 314.587 137.185 330.61C138.321 346.632 139.71 371.864 139.71 371.864L152.461 371.612C152.461 371.612 155.364 329.474 155.364 320.517C155.364 311.686 158.015 290.365 158.015 287.841C158.015 285.318 149.683 242.297 149.683 242.297L143.876 200.286L91.104 200.538Z" fill="url(#paint13_linear)"/>
<path d="M106.128 61.3833C101.835 63.0233 96.2802 84.4706 96.2802 84.4706L96.1539 84.3445L93.7552 86.7415L94.7652 91.2833L98.9314 162.312L120.646 157.644L139.709 137.458L151.577 143.009C151.577 143.009 152.461 168.872 152.587 170.26C152.713 171.648 154.733 210.631 154.733 213.281C154.859 216.056 166.474 228.294 168.368 226.906C174.049 222.869 164.58 215.551 162.308 213.659C160.919 212.65 158.142 176.316 157.889 172.026C157.637 167.737 164.454 156.887 152.713 142.504C144.128 132.033 139.457 105.161 132.261 74.6301C128.473 58.7339 126.201 54.0659 122.414 54.0659C119.131 54.3183 114.46 58.3554 106.128 61.3833Z" fill="url(#paint14_linear)"/>
<path d="M102.466 121.94C102.34 122.193 94.134 125.977 90.599 130.393C87.0641 134.683 84.1604 140.991 84.1604 140.991C84.1604 140.991 78.9842 153.228 75.323 162.312C73.4293 167.232 66.9906 187.165 74.6918 187.922C81.8879 188.553 97.7952 171.648 100.32 168.494L103.098 162.312C103.35 161.555 98.8051 153.228 98.9314 152.471C99.0576 151.21 109.536 145.154 111.051 148.813C111.556 150.074 112.945 153.48 113.45 154.49C114.46 157.139 99.3101 162.186 99.3101 164.456C99.3101 167.358 98.0477 177.956 96.0277 183.128C94.0077 188.301 90.8515 200.665 90.8515 200.665L144.128 200.791C144.128 200.791 142.361 177.072 143.118 169.251C143.118 169.251 145.391 143.388 146.779 140.864C148.168 138.341 150.441 172.783 150.062 179.848C149.809 184.768 154.228 214.416 155.491 215.425C157.51 217.065 162.434 213.785 162.434 213.785C162.434 213.785 162.182 181.236 162.055 175.937C161.803 170.512 162.182 126.861 154.986 118.912C147.789 111.091 145.896 111.217 139.962 113.361C134.028 115.38 131.125 117.399 123.045 118.786C118.121 119.669 112.945 119.039 108.4 117.02C109.662 112.478 107.011 120.174 107.39 118.029" fill="url(#paint15_linear)"/>
<path d="M110.294 49.1457C110.294 49.1457 99.6888 49.5242 96.6589 59.8693C93.6289 70.2145 93.2502 84.723 93.124 86.9939C92.9977 89.3909 94.2602 105.666 92.8715 110.207C91.609 114.245 88.3265 121.562 86.1803 126.734C85.4228 128.753 84.7916 130.898 84.4128 133.042L84.1603 134.809C84.6653 136.575 86.6853 137.71 88.4528 137.08C88.579 136.953 88.7053 136.953 88.8315 136.953C89.8415 136.449 90.8515 135.944 91.8615 135.313C95.0177 133.421 99.1839 128.248 102.34 126.608C105.749 124.968 109.662 117.146 110.167 116.642C110.672 116.137 110.546 114.118 110.546 112.226C110.925 102.512 109.031 93.6804 106.759 89.0124C104.486 84.3445 99.3101 75.2609 102.845 69.9622C106.506 64.6634 113.955 60.5001 114.334 59.2385C114.712 57.9769 114.839 64.285 118.879 66.5558C122.918 68.8267 128.473 74.8824 128.473 76.2702C128.473 77.658 129.862 81.9474 125.948 89.5171C122.161 97.0867 119.131 106.675 124.433 113.866C129.736 121.057 142.992 131.024 143.876 133.295C144.759 135.566 143.876 145.659 143.497 151.336C143.118 157.013 154.228 141.621 153.849 134.304C153.471 126.861 154.733 123.707 147.284 112.478C139.836 101.25 134.786 81.6951 134.66 77.0272C134.407 72.2331 132.135 59.2385 127.59 55.4537C123.676 52.2997 122.792 49.1457 114.712 49.1457C113.45 48.8934 111.809 49.0195 110.294 49.1457Z" fill="url(#paint16_linear)"/>
<g opacity="0.07">
<path d="M105.496 370.855C105.623 371.107 105.623 371.234 105.623 371.486C105.749 373 105.623 376.659 103.981 378.929C101.961 381.957 106.759 388.77 106.759 390.41C106.759 392.05 104.613 393.564 102.971 393.186C101.456 392.681 95.0177 389.148 97.5427 381.326C98.5526 378.172 99.1839 375.397 99.6889 373.757C100.068 372.874 100.32 371.991 100.573 371.107C100.699 370.729 100.699 370.351 100.699 369.846C100.573 369.341 100.573 368.71 100.573 368.08C100.194 365.052 87.5691 271.441 87.0641 267.908C86.6853 264.754 84.7916 244.947 85.0441 233.34C84.9178 232.331 84.9178 231.322 84.9178 230.438C84.9178 230.186 85.0441 229.051 85.0441 228.546C85.1703 227.537 85.1703 226.401 85.2966 225.392C85.0441 224.509 85.1703 224.509 85.2966 223.121C85.4228 221.733 85.2966 220.976 85.4228 220.093C86.6853 212.271 89.589 203.314 90.9777 200.791L91.3565 199.403C91.3565 199.403 94.5127 187.544 95.6489 185.273C96.5327 183.254 99.3101 172.783 98.9314 170.638C98.8051 169.377 103.098 164.709 103.098 164.709L103.981 163.952C104.36 163.826 104.865 163.952 105.244 164.078C106.128 164.456 109.789 161.302 110.42 163.321C114.712 176.946 116.48 182.75 108.905 190.95C101.33 199.151 108.274 206.342 108.4 212.145C108.779 226.275 101.835 224.761 101.456 233.592C101.078 242.424 102.971 248.732 103.098 253.4C103.476 268.539 103.224 271.567 102.466 277.496C101.709 283.426 97.5426 294.654 102.088 316.858C106.633 339.063 106.001 340.955 105.496 353.571C104.991 365.935 105.496 370.855 105.496 370.855Z" fill="black"/>
</g>
<path d="M98.4264 142L98.5526 141.874C99.0576 141.621 102.214 139.981 104.486 139.098C107.011 138.089 109.915 146.542 110.672 148.182C110.799 148.308 110.799 148.308 110.167 148.434C108.4 148.686 106.506 148.939 104.865 149.443C102.34 150.074 99.4364 152.093 99.3101 152.093C99.1839 152.219 98.4264 150.579 96.9114 146.794C96.5327 145.911 95.9014 143.64 96.5327 143.135L98.4264 142Z" fill="#EFEFEF"/>
<path opacity="0.07" d="M117.616 97.4652C119.257 98.096 121.025 97.7175 122.287 96.4559C124.433 94.3112 121.53 101.755 121.909 103.395C122.414 104.909 117.616 97.4652 117.616 97.4652Z" fill="black"/>
<path d="M103.098 161.555C103.098 161.555 113.197 154.994 113.324 155.247C113.576 155.878 114.46 158.275 114.46 158.275C114.46 158.275 115.217 159.788 114.965 160.293C114.712 160.798 105.118 164.835 105.118 164.835C104.739 164.709 104.36 164.583 104.234 164.204C103.855 163.447 103.476 162.564 103.098 161.555Z" fill="#EFEFEF"/>
<path d="M299.49 326.143C298.25 320.906 297.836 314.198 297.009 314.06H296.09L287.315 314.152C287.315 314.152 285.477 322.514 284.558 326.006C284.466 326.235 284.329 326.833 284.145 327.246C283.961 327.843 283.961 328.487 283.961 329.084C284.145 332.254 285.385 334.965 288.188 336.389C291.358 337.951 293.747 339.467 296.963 336.389C300.225 333.265 300.731 331.381 299.49 326.143Z" fill="#4464E7"/>
<path d="M271.694 314.887L260.576 315.484C260.576 315.484 256.165 323.111 249.733 324.949C243.668 326.695 233.652 330.922 238.109 333.311C241.417 335.24 262.827 333.494 268.018 333.908C271.924 334.23 272.98 331.84 272.567 326.603C272.291 322.652 271.694 314.887 271.694 314.887Z" fill="#4464E7"/>
<path d="M258.37 176.091C258.37 176.091 250.927 237.426 250.422 241.423C249.916 245.42 252.995 265.865 252.995 269.77C252.995 273.675 260.3 315.53 260.3 315.53L271.924 315.025C271.924 315.025 269.58 253.414 269.856 250.428C270.086 247.441 282.812 211.697 282.812 211.697C282.812 211.697 283.731 221.162 283.731 224.148C283.731 227.134 287.223 314.29 287.223 314.29H297.331L311.665 185.923L311.435 183.442L258.37 176.091Z" fill="url(#paint17_linear)"/>
<path d="M292.507 57.6013C292.507 57.6013 281.388 61.92 278.907 62.8848C276.426 63.8956 275.002 66.9279 275.002 66.9279C275.002 66.9279 273.761 66.1928 273.761 68.2602C273.761 70.3277 274.772 75.0599 275.599 76.3004C276.932 78.3679 278.08 80.4354 279.183 82.5947C280.194 84.7541 279.826 89.2107 278.769 89.8998C277.713 90.543 258.967 107.496 258.967 107.496L243.347 155.508L245.414 170.669L248.584 185.601C248.584 185.601 247.941 186.658 249.227 187.944C250.56 189.185 256.211 198.465 256.211 198.465L258.14 184.774L251.754 164.467L249.503 147.376L264.435 116.869L316.168 126.058L321.819 159.321L311.344 187.668L309.506 201.498L318.281 193.779C318.786 193.366 319.751 191.206 320.257 190.058L325.494 175.31L329.399 151.74C329.399 151.74 296.733 92.8862 295.079 89.3944C294.344 87.8323 295.171 84.019 295.585 82.0894C295.998 80.3435 296.825 78.0922 297.652 77.449C298.893 76.1167 299.49 74.233 299.812 72.4871C299.812 71.2466 300.317 66.4225 299.076 67.617C298.847 67.9386 297.928 66.4684 297.514 64.5388C296.733 61.7362 294.758 59.3931 292.507 57.6013Z" fill="url(#paint18_linear)"/>
<path d="M288.28 105.613C287.453 106.348 286.212 106.256 285.477 105.521C284.88 104.602 284.328 103.683 283.915 102.764C283.088 101.11 276.702 91.7376 276.702 91.7376C276.702 91.7376 261.54 95.6428 259.105 97.2049C256.624 98.8589 254.373 101.11 253.546 104.005C252.719 106.899 241.003 140.989 240.452 143.057C239.855 145.124 236.868 148.432 238.293 156.84C239.717 165.248 247.573 186.704 248.4 186.933C249.227 187.163 257.589 183.028 257.589 183.028C257.589 183.028 250.973 156.335 250.973 153.67C250.973 151.005 256.946 143.47 259.335 138.325C261.724 133.179 263.47 128.722 264.297 126.471C265.124 124.22 257.176 170.853 257.176 170.853C257.176 170.853 256.992 179.307 258.6 180.134C260.07 180.869 277.896 187.668 282.077 189.276C282.491 189.46 282.996 189.185 283.226 188.771L285.891 181.236C285.891 181.144 285.982 181.053 286.074 181.144C286.166 181.144 286.166 181.236 286.166 181.236L288.647 189.46C288.739 189.874 289.244 190.103 289.658 190.058L311.619 185.325C311.619 185.325 311.298 144.803 311.711 138.003C312.033 131.387 311.206 127.62 312.446 129.458C313.779 131.433 319.338 149.673 319.338 152.751C319.338 155.829 313.135 182.752 313.135 182.752L321.359 187.301C321.359 187.301 332.478 157.713 333.029 153.808C333.626 149.903 333.856 147.835 332.018 143.93C330.181 140.025 320.073 104.648 320.073 104.648C320.073 104.648 319.062 100.329 311.619 98.0778C304.176 95.8266 298.617 92.5186 297.285 92.6105C295.952 92.7024 291.817 100.467 289.98 102.81C289.107 103.683 289.29 104.096 288.28 105.613Z" fill="url(#paint19_linear)"/>
<path d="M292.415 57.6472C292.415 57.6472 279.872 62.1957 277.345 64.1253C275.415 65.5496 275.002 66.8819 275.002 66.8819C275.002 66.8819 273.669 66.2847 273.761 68.2143C273.853 70.144 272.291 65.228 271.832 63.6659C271.51 62.1038 271.418 57.6931 274.818 54.4771C278.218 51.261 281.939 48.826 285.11 49.0098C288.28 49.1935 290.852 50.0665 293.333 52.5015C295.814 54.8906 296.412 54.7527 296.917 54.9825C297.422 55.2122 299.995 57.9688 300.317 60.9552C300.639 63.9415 299.72 68.3521 299.72 68.3521C299.72 68.3521 299.122 67.7089 298.479 68.1684C297.836 68.6278 297.652 65.3658 295.493 61.2768C293.931 58.2445 292.415 57.6472 292.415 57.6472Z" fill="url(#paint20_linear)"/>
<path opacity="0.07" d="M284.466 205.403C283.042 209.538 277.483 217.67 273.853 222.586C270.224 227.456 259.013 237.747 259.749 250.29C260.484 262.833 268.018 295.085 268.018 297.98C268.018 300.874 265.216 314.566 263.056 318.792C260.897 323.019 259.886 330.554 260.989 330.554C262.965 330.462 265.032 330.232 267.054 329.727C268.891 329.314 270.683 328.9 272.429 328.303C273.164 327.981 273.348 325.546 273.348 325.546C273.44 324.535 273.256 323.479 273.026 322.56C272.521 320.998 272.107 319.39 271.878 317.828C271.464 306.066 270.408 278.775 270.637 276.846C271.051 273.262 268.156 255.298 270.821 246.431C273.44 237.61 284.466 205.403 284.466 205.403Z" fill="black"/>
<path opacity="0.07" d="M257.589 183.028L255.66 197.776C255.66 197.776 257.589 200.854 258.14 198.282C258.738 195.709 262.689 190.885 260.208 187.439C257.727 183.993 257.589 183.028 257.589 183.028Z" fill="black"/>
<path opacity="0.07" d="M311.481 187.117L310.838 194.147L310.011 200.946C310.011 200.946 307.209 203.014 307.255 200.349C307.346 197.684 302.522 193.733 306.198 191.068C309.873 188.404 311.481 187.117 311.481 187.117Z" fill="black"/>
<path opacity="0.07" d="M276.61 91.8295C277.115 91.7376 274.221 92.4727 276.794 91.6457C281.204 90.2214 279.367 81.9515 279.367 81.9515C279.367 81.9515 279.78 85.0298 283.915 86.2703C288.05 87.5107 289.153 86.5919 282.904 89.4863C276.702 92.3808 279.918 93.3916 280.331 97.2049" fill="black"/>
<path opacity="0.07" d="M264.159 129.32L257.176 171.588C257.176 171.588 257.268 179.123 258.6 180.226C259.932 181.282 264.389 182.063 265.4 182.798C266.41 183.534 277.161 187.117 274.359 181.053C273.715 179.72 259.197 171.588 265.675 163.043C272.153 154.497 270.959 142.735 267.927 134.511C266.089 129.687 265.17 124.542 265.446 119.442L264.159 129.32Z" fill="black"/>
</g>
<defs>
<linearGradient id="paint0_linear" x1="5.06513" y1="348.943" x2="60.5392" y2="348.943" gradientUnits="userSpaceOnUse">
<stop stop-color="#93FD93"/>
<stop offset="0.51" stop-color="#21C2C1"/>
<stop offset="1" stop-color="#84F599"/>
</linearGradient>
<linearGradient id="paint1_linear" x1="25.8508" y1="334.612" x2="50.1525" y2="371.038" gradientUnits="userSpaceOnUse">
<stop stop-color="#93FD93"/>
<stop offset="0.51" stop-color="#21C2C1"/>
<stop offset="1" stop-color="#84F599"/>
</linearGradient>
<linearGradient id="paint2_linear" x1="62.1459" y1="370.356" x2="98.7073" y2="335.771" gradientUnits="userSpaceOnUse">
<stop stop-color="#93FD93"/>
<stop offset="0.51" stop-color="#21C2C1"/>
<stop offset="1" stop-color="#84F599"/>
</linearGradient>
<linearGradient id="paint3_linear" x1="73.0397" y1="356.427" x2="44.51" y2="312.272" gradientUnits="userSpaceOnUse">
<stop stop-color="#93FD93"/>
<stop offset="0.51" stop-color="#21C2C1"/>
<stop offset="1" stop-color="#84F599"/>
</linearGradient>
<linearGradient id="paint4_linear" x1="36.2916" y1="332.544" x2="62.4789" y2="332.544" gradientUnits="userSpaceOnUse">
<stop stop-color="#93FD93"/>
<stop offset="0.51" stop-color="#21C2C1"/>
<stop offset="1" stop-color="#84F599"/>
</linearGradient>
<linearGradient id="paint5_linear" x1="60.2342" y1="367.54" x2="81.4888" y2="329.961" gradientUnits="userSpaceOnUse">
<stop stop-color="#93FD93"/>
<stop offset="0.51" stop-color="#21C2C1"/>
<stop offset="1" stop-color="#84F599"/>
</linearGradient>
<linearGradient id="paint6_linear" x1="43.8802" y1="376.213" x2="84.298" y2="376.213" gradientUnits="userSpaceOnUse">
<stop stop-color="#2FEC68"/>
<stop offset="1" stop-color="#4464E7"/>
</linearGradient>
<linearGradient id="paint7_linear" x1="549.599" y1="308.848" x2="438.089" y2="308.848" gradientUnits="userSpaceOnUse">
<stop stop-color="#4464E7"/>
<stop offset="1" stop-color="#4B45BD"/>
</linearGradient>
<linearGradient id="paint8_linear" x1="508.48" y1="96.1126" x2="471.391" y2="96.1126" gradientUnits="userSpaceOnUse">
<stop stop-color="#F87B58"/>
<stop offset="0.41" stop-color="#F89453"/>
<stop offset="0.94" stop-color="#F8C548"/>
</linearGradient>
<linearGradient id="paint9_linear" x1="459.087" y1="220.751" x2="437.881" y2="220.751" gradientUnits="userSpaceOnUse">
<stop stop-color="#F87B58"/>
<stop offset="0.41" stop-color="#F89453"/>
<stop offset="0.94" stop-color="#F8C548"/>
</linearGradient>
<linearGradient id="paint10_linear" x1="546.375" y1="93.4782" x2="511.496" y2="93.4782" gradientUnits="userSpaceOnUse">
<stop stop-color="#F87B58"/>
<stop offset="0.41" stop-color="#F89453"/>
<stop offset="0.94" stop-color="#F8C548"/>
</linearGradient>
<linearGradient id="paint11_linear" x1="569.283" y1="161.598" x2="451.553" y2="161.598" gradientUnits="userSpaceOnUse">
<stop stop-color="#2FEC68"/>
<stop offset="1" stop-color="#4464E7"/>
</linearGradient>
<linearGradient id="paint12_linear" x1="550.713" y1="85.8181" x2="516.943" y2="71.1552" gradientUnits="userSpaceOnUse">
<stop stop-color="#4B45BD"/>
<stop offset="1" stop-color="#58CAEA"/>
</linearGradient>
<linearGradient id="paint13_linear" x1="84.8763" y1="286.252" x2="158.329" y2="286.252" gradientUnits="userSpaceOnUse">
<stop stop-color="#4B45BD"/>
<stop offset="1" stop-color="#58CAEA"/>
</linearGradient>
<linearGradient id="paint14_linear" x1="93.7737" y1="140.736" x2="170.287" y2="140.736" gradientUnits="userSpaceOnUse">
<stop stop-color="#F87B58"/>
<stop offset="0.5" stop-color="#F8C548"/>
<stop offset="1" stop-color="#F89C51"/>
</linearGradient>
<linearGradient id="paint15_linear" x1="71.096" y1="164.083" x2="162.268" y2="164.083" gradientUnits="userSpaceOnUse">
<stop stop-color="#2FEC68"/>
<stop offset="1" stop-color="#33BCE3"/>
</linearGradient>
<linearGradient id="paint16_linear" x1="84.2271" y1="100.74" x2="154.201" y2="100.74" gradientUnits="userSpaceOnUse">
<stop stop-color="#4B45BD"/>
<stop offset="1" stop-color="#58CAEA"/>
</linearGradient>
<linearGradient id="paint17_linear" x1="250.341" y1="245.801" x2="311.586" y2="245.801" gradientUnits="userSpaceOnUse">
<stop stop-color="#2FEC68"/>
<stop offset="1" stop-color="#4464E7"/>
</linearGradient>
<linearGradient id="paint18_linear" x1="243.348" y1="129.556" x2="329.413" y2="129.556" gradientUnits="userSpaceOnUse">
<stop stop-color="#F87B58"/>
<stop offset="0.41" stop-color="#F89453"/>
<stop offset="0.71" stop-color="#F8C548"/>
<stop offset="1" stop-color="#F89C51"/>
</linearGradient>
<linearGradient id="paint19_linear" x1="237.916" y1="140.881" x2="333.547" y2="140.881" gradientUnits="userSpaceOnUse">
<stop stop-color="#4464E7"/>
<stop offset="1" stop-color="#33BCE3"/>
</linearGradient>
<linearGradient id="paint20_linear" x1="271.719" y1="58.7945" x2="300.475" y2="58.7945" gradientUnits="userSpaceOnUse">
<stop stop-color="#4B45BD"/>
<stop offset="1" stop-color="#58CAEA"/>
</linearGradient>
<clipPath id="clip0">
<rect width="616" height="462" fill="white"/>
</clipPath>
</defs>
</svg>
