<svg xmlns="http://www.w3.org/2000/svg" viewBox="0 0 418.22 389.17"><defs><style>.cls-1,.cls-5,.cls-6{fill:#90a4ae;}.cls-1,.cls-10,.cls-11,.cls-12,.cls-2{opacity:0.25;}.cls-10,.cls-2,.cls-3,.cls-7,.cls-9{fill:none;}.cls-2{stroke:#707070;stroke-width:15.1px;}.cls-10,.cls-2,.cls-3,.cls-9{stroke-linecap:round;}.cls-11,.cls-12,.cls-2,.cls-5,.cls-6,.cls-7,.cls-8{stroke-miterlimit:10;}.cls-10,.cls-3,.cls-8{stroke:#000;}.cls-10,.cls-3,.cls-9{stroke-linejoin:round;}.cls-3{stroke-width:12.08px;}.cls-4{fill:#4464e6;}.cls-11,.cls-5,.cls-7{stroke:#070507;}.cls-10,.cls-11,.cls-12,.cls-5,.cls-6,.cls-7,.cls-9{stroke-width:12.08px;}.cls-12,.cls-6{stroke:#060406;}.cls-13,.cls-8{fill:#33bbe2;}.cls-8{stroke-width:10px;}.cls-9{stroke:#fff;opacity:0.75;}.cls-14{fill:#00ffd9;}</style></defs><title>Asset 5</title><g id="Layer_2" data-name="Layer 2"><g id="Illustrations"><g id="AI"><circle class="cls-1" cx="209.34" cy="194.59" r="194.59"/><line class="cls-2" x1="333.42" y1="334.17" x2="83.39" y2="334.17"/><line class="cls-3" x1="412.18" y1="322.41" x2="396.99" y2="322.41"/><line class="cls-3" x1="359.6" y1="321.89" x2="58.91" y2="321.89"/><line class="cls-3" x1="21.23" y1="322.41" x2="6.04" y2="322.41"/><path id="shock_color" class="cls-4" d="M373,227.63c0-10.34-4.51-20.19-12.67-29.15-16.81-18.48-49.12-33.2-89.42-40.74q-8.6-1.61-17.67-2.76a45.31,45.31,0,0,1-87.43,0c-6.87.87-13.57,1.93-20,3.2-41.27,8.07-73.85,23.74-89.53,43.2-6.58,8.17-10.2,17-10.2,26.25,0,32.21,43.82,59.69,105.44,70.49V260a58,58,0,1,1,116.08,0v38.08C329.22,287.32,373,259.84,373,227.63Z"/><circle class="cls-5" cx="101.63" cy="76.95" r="35.45" transform="translate(-14.78 25) rotate(-13.08)"/><circle class="cls-5" cx="314.99" cy="76.95" r="35.45"/><path class="cls-5" d="M145.8,158.18a45.35,45.35,0,0,0-89.53,10.23v33C72,181.92,104.53,166.25,145.8,158.18Z"/><path class="cls-6" d="M360.36,198.48V168.41a45.34,45.34,0,0,0-89.42-10.67C311.24,165.28,343.55,180,360.36,198.48Z"/><path class="cls-7" d="M373,227.63c0-10.34-4.51-20.19-12.67-29.15-16.81-18.48-49.12-33.2-89.42-40.74q-8.6-1.61-17.67-2.76a45.31,45.31,0,0,1-87.43,0c-6.87.87-13.57,1.93-20,3.2-41.27,8.07-73.85,23.74-89.53,43.2-6.58,8.17-10.2,17-10.2,26.25,0,32.21,43.82,59.69,105.44,70.49V260a58,58,0,1,1,116.08,0v38.08C329.22,287.32,373,259.84,373,227.63Z"/><path class="cls-8" d="M209.55,189.38A45.55,45.55,0,1,0,165.84,156,45.34,45.34,0,0,0,209.55,189.38Z"/><path class="cls-8" d="M209.55,201a58,58,0,0,0-58,58v47.78a10.26,10.26,0,0,0,10.27,10.26h95.55a10.26,10.26,0,0,0,10.26-10.26V259A58,58,0,0,0,209.55,201Z"/><path class="cls-9" d="M125,79.61A25.69,25.69,0,0,0,99.29,53.93"/><path class="cls-9" d="M338.34,79.61a25.69,25.69,0,0,0-25.69-25.68"/><path class="cls-10" d="M269.63,285.7c53.7-9.79,93.47-32.32,101.79-59.52"/><path class="cls-10" d="M47.69,226.2C56,253.3,95.55,275.77,149,285.61"/><path class="cls-10" d="M151.51,299.77A10.27,10.27,0,0,0,161.78,310h95.55a10.26,10.26,0,0,0,10.26-10.26"/><path class="cls-10" d="M164.19,135a45.37,45.37,0,0,0,90.73,0"/><path class="cls-9" d="M238.16,145.53a32.87,32.87,0,0,0-32.86-32.87"/><path class="cls-11" d="M145.8,158.18a45.35,45.35,0,0,0-89.53,10.23v33C72,181.92,104.53,166.25,145.8,158.18Z"/><path class="cls-12" d="M360.36,198.48V168.41a45.34,45.34,0,0,0-89.42-10.67C311.24,165.28,343.55,180,360.36,198.48Z"/><path class="cls-13" d="M111.42,126.13l-4.63,11,9.43,28.07-24,9.15,6-36.89-6-11.32S102.17,121.75,111.42,126.13Z"/><path class="cls-7" d="M112.5,125.32l-4.12,12.73,7.84,27.14-24,9.15,4-34.79-7-13.42S102.17,121.75,112.5,125.32Z"/><path class="cls-14" d="M303.39,126.13l4.63,11-9.43,28.07,24,9.15-6-36.89,6-11.32S312.64,121.75,303.39,126.13Z"/><path class="cls-7" d="M302.3,125.32l4.13,12.73-7.63,26.41,10.29,3.73,13.3,4.54-3.82-33.18,7-13.42S312.64,121.75,302.3,125.32Z"/></g></g></g></svg>