<svg id="Layer_1" data-name="Layer 1" xmlns="http://www.w3.org/2000/svg" viewBox="0 0 230.37 35.35"><defs><style>.cls-1{fill:#4464e6;}.cls-2,.cls-3{fill:#3c474a;}.cls-3{font-size:45.98px;font-family:Audiowide-Regular, Audiowide;}</style></defs><title>Artboard 1</title><path class="cls-1" d="M77.38.81h0a4,4,0,0,1,4,4v4a0,0,0,0,1,0,0h-4a4,4,0,0,1-4-4v0a4,4,0,0,1,4-4Z" transform="translate(72.57 82.19) rotate(-90)"/><rect class="cls-2" y="0.77" width="64.99" height="8" rx="4"/><rect class="cls-2" x="11.54" y="13.64" width="53.45" height="8" rx="4"/><rect class="cls-2" x="11.54" y="26.48" width="53.45" height="8" rx="4"/><rect class="cls-2" x="66.96" y="20.06" width="20.83" height="8" rx="4" transform="translate(101.44 -53.32) rotate(90)"/><text class="cls-3" transform="translate(90.73 33.78) scale(1.09 1)">MWD</text></svg>