<svg xmlns="http://www.w3.org/2000/svg" viewBox="0 0 227.83 33.71"><defs><style>.cls-1{fill:#4464e6;}.cls-2{fill:#3c474a;}</style></defs><title>Asset 6</title><g id="Layer_2" data-name="Layer 2"><g id="Layer_2-2" data-name="Layer 2"><path class="cls-1" d="M77.38,0h0a4,4,0,0,1,4,4V8a0,0,0,0,1,0,0h-4a4,4,0,0,1-4-4V4a4,4,0,0,1,4-4Z" transform="translate(73.34 81.42) rotate(-90)"/><rect class="cls-2" width="64.99" height="8" rx="4"/><rect class="cls-2" x="11.54" y="12.87" width="53.45" height="8" rx="4"/><rect class="cls-2" x="11.54" y="25.71" width="53.45" height="8" rx="4"/><rect class="cls-2" x="66.96" y="19.29" width="20.83" height="8" rx="4" transform="translate(100.67 -54.09) rotate(90)"/><path class="cls-2" d="M135.24,33h-6.41V13.83L117.56,32a2.76,2.76,0,0,1-1.16,1.06,3.82,3.82,0,0,1-1.61.35,3.56,3.56,0,0,1-1.55-.35A2.77,2.77,0,0,1,112.1,32L100.78,13.83V33H94.42V3.31a2.75,2.75,0,0,1,.65-1.8A3.18,3.18,0,0,1,96.77.45a3.56,3.56,0,0,1,1-.07,3.71,3.71,0,0,1,1,.2,3.19,3.19,0,0,1,.87.47,2.88,2.88,0,0,1,.66.73l14.47,23.1,14.48-23.1A3.06,3.06,0,0,1,130.82.57a3.63,3.63,0,0,1,2.07-.12,3.23,3.23,0,0,1,1.69,1.06,2.7,2.7,0,0,1,.66,1.8Z"/><path class="cls-2" d="M187.4.81,181.53,31a2.93,2.93,0,0,1-.88,1.54,3.13,3.13,0,0,1-1.66.83,3.44,3.44,0,0,1-1.89-.2A3,3,0,0,1,175.69,32L164.05,14.49,152.38,32a2.77,2.77,0,0,1-1.13,1,3.47,3.47,0,0,1-1.56.36,3.26,3.26,0,0,1-2-.67A2.8,2.8,0,0,1,146.59,31L140.67.81h6.45l4.21,21.26,10-14.68a2.77,2.77,0,0,1,1.13-1A3.47,3.47,0,0,1,164.05,6a3.36,3.36,0,0,1,1.54.36,3.25,3.25,0,0,1,1.17,1l10,14.68L181,.81Z"/><path class="cls-2" d="M227.83,19.54a12.81,12.81,0,0,1-4.18,9.66A14.47,14.47,0,0,1,219,32a16.56,16.56,0,0,1-5.85,1H196a3.5,3.5,0,0,1-1.27-.23,3,3,0,0,1-1-.62,2.85,2.85,0,0,1-.92-2.1V3.76A2.65,2.65,0,0,1,193,2.61a2.84,2.84,0,0,1,.67-.94,3,3,0,0,1,1-.63A3.5,3.5,0,0,1,196,.81h17.16a16.56,16.56,0,0,1,5.85,1,14.47,14.47,0,0,1,4.65,2.8,12.86,12.86,0,0,1,4.18,9.66Zm-6.36-5.26a8,8,0,0,0-.6-3.12,6.9,6.9,0,0,0-1.7-2.41,7.73,7.73,0,0,0-2.63-1.55,9.88,9.88,0,0,0-3.39-.55h-14V27.17h14a9.88,9.88,0,0,0,3.39-.55,7.73,7.73,0,0,0,2.63-1.55,7,7,0,0,0,1.7-2.4,7.9,7.9,0,0,0,.6-3.13Z"/></g></g></svg>