<svg xmlns="http://www.w3.org/2000/svg" viewBox="0 0 389.17 389.17"><defs><style>.cls-1{fill:#5d656c;opacity:0.1;}.cls-2{fill:#4464e6;}.cls-3{fill:#90a4ae;}.cls-4{opacity:0.5;}.cls-10,.cls-5,.cls-7,.cls-8,.cls-9{fill:none;}.cls-6{fill:#33bbe2;}.cls-10,.cls-7,.cls-8{stroke:#000;}.cls-10,.cls-7,.cls-8,.cls-9{stroke-linecap:round;stroke-linejoin:round;}.cls-7{stroke-width:11.16px;}.cls-10,.cls-8,.cls-9{stroke-width:12.08px;}.cls-9{stroke:#fff;opacity:0.75;}.cls-10{opacity:0.25;}</style></defs><title>Asset 1</title><g id="Layer_2" data-name="Layer 2"><g id="Illustrations"><g id="AI"><circle class="cls-1" cx="194.59" cy="194.59" r="194.59"/><path class="cls-2" d="M235.3,98.6A147.14,147.14,0,0,0,53.4,198.89L92,210A106.94,106.94,0,0,1,282.5,179l39-13.48A146.57,146.57,0,0,0,235.3,98.6Z"/><path class="cls-3" d="M75.3,154l.58-.81Z"/><path class="cls-3" d="M86.75,140l.54-.59Z"/><path class="cls-3" d="M91.77,134.83l.51-.5Z"/><path class="cls-3" d="M94.38,132.34l.47-.45Z"/><path class="cls-3" d="M97,129.94l.46-.42Z"/><path class="cls-3" d="M79.68,148.18c.19-.24.38-.49.58-.73C80.06,147.69,79.87,147.94,79.68,148.18Z"/><path class="cls-3" d="M77.45,151l.59-.78Z"/><path class="cls-3" d="M84.33,142.65l.56-.63Z"/><path class="cls-3" d="M99.72,127.61l.46-.39Z"/><path class="cls-3" d="M82,145.39l.57-.69Z"/><path class="cls-3" d="M89.76,136.83l-.54.55Z"/><path class="cls-3" d="M120.19,113.13l.18-.1Z"/><path class="cls-3" d="M123.29,111.36l.14-.08Z"/><path class="cls-3" d="M117.13,115l.21-.14Z"/><path class="cls-3" d="M126.45,109.66l.09,0Z"/><path class="cls-3" d="M129.65,108h0Z"/><path class="cls-3" d="M114.11,116.9l.25-.17Z"/><path class="cls-3" d="M108.2,121l.35-.25Z"/><path class="cls-3" d="M105.32,123.11l.39-.29Z"/><path class="cls-3" d="M111.13,118.9l.3-.21Z"/><path class="cls-3" d="M102.5,125.33l.42-.34Z"/><path class="cls-3" d="M65.57,169.39l.56-1Z"/><path class="cls-3" d="M248.06,102.91c-.74-.29-1.48-.58-2.23-.85C246.58,102.33,247.32,102.62,248.06,102.91Z"/><path class="cls-3" d="M244.33,101.52l-1.94-.69Z"/><path class="cls-3" d="M240.35,100.16l-1.47-.48Z"/><path class="cls-3" d="M54,196.81c.12-.41.24-.82.37-1.23C54.29,196,54.16,196.4,54,196.81Z"/><path class="cls-3" d="M73.21,156.93l.59-.87Z"/><path class="cls-3" d="M255.17,105.88l-2.62-1.15Z"/><path class="cls-3" d="M251.64,104.36c-.8-.34-1.61-.68-2.42-1C250,103.68,250.84,104,251.64,104.36Z"/><path class="cls-3" d="M262,109.17c-1-.51-2-1-3-1.5C260,108.16,261,108.66,262,109.17Z"/><path class="cls-3" d="M258.62,107.49c-.94-.45-1.87-.89-2.82-1.32C256.75,106.6,257.68,107,258.62,107.49Z"/><path class="cls-3" d="M55.19,193.21c.14-.4.27-.81.41-1.22C55.46,192.4,55.33,192.81,55.19,193.21Z"/><path class="cls-3" d="M262.13,109.24a146.76,146.76,0,0,1,59.34,56.26L282.5,179A106.94,106.94,0,0,0,92,210L53.41,198.89c0,.16-.1.32-.14.49a146.7,146.7,0,0,0,15.65,117H320.46a147.17,147.17,0,0,0-58.33-207.11Z"/><path class="cls-3" d="M69.24,163.06c.19-.32.38-.64.58-1C69.62,162.42,69.43,162.74,69.24,163.06Z"/><path class="cls-3" d="M67.37,166.2l.57-1Z"/><path class="cls-3" d="M63.85,172.65c.18-.36.36-.72.55-1.07C64.21,171.93,64,172.29,63.85,172.65Z"/><path class="cls-3" d="M56.43,189.66c.15-.4.29-.8.43-1.2C56.72,188.86,56.58,189.26,56.43,189.66Z"/><path class="cls-3" d="M71.19,160l.58-.92Z"/><path class="cls-3" d="M59.15,182.72c.17-.39.33-.79.49-1.17C59.48,181.93,59.32,182.33,59.15,182.72Z"/><path class="cls-3" d="M62.21,176c.17-.37.34-.74.52-1.1C62.55,175.21,62.38,175.58,62.21,176Z"/><path class="cls-3" d="M57.75,186.16c.16-.39.31-.79.46-1.18C58.06,185.37,57.91,185.77,57.75,186.16Z"/><path class="cls-3" d="M60.64,179.31l.51-1.14Z"/><path class="cls-4" d="M269.66,316.35a107,107,0,1,0-150,0Z"/><path class="cls-5" d="M210.16,227.85c.23.29.41.6.62.91C210.58,228.45,210.38,228.14,210.16,227.85Z"/><path class="cls-3" d="M352.93,154.61,321.47,165.5,282.5,179l-73.3,25.37-6.44,17.45a17.66,17.66,0,0,1,6.6,5.1c.28.31.54.62.8.95s.42.6.62.91a19.61,19.61,0,0,1,2.87,16.71h0L234.44,250Z"/><path class="cls-6" d="M210.78,228.76c-.21-.31-.39-.62-.62-.91s-.52-.64-.8-.95a19.7,19.7,0,1,0,4.29,18.57h0A19.61,19.61,0,0,0,210.78,228.76Z"/><path class="cls-7" d="M281.77,177.84A107,107,0,1,0,119.65,316.35h150a107,107,0,0,0,26-111.75"/><path class="cls-8" d="M352.93,154.61,234.44,250l-20.79-4.48c2.78-9.67-2.88-20.33-10.89-23.67l6.44-17.45Z"/><path class="cls-8" d="M213.65,245.47A19.74,19.74,0,1,0,189.22,259,19.74,19.74,0,0,0,213.65,245.47Z"/><line class="cls-8" x1="91.83" y1="210.46" x2="53.27" y2="199.38"/><path class="cls-9" d="M285.08,151.41a122.86,122.86,0,0,0-90.58-39.85"/><line class="cls-10" x1="68.64" y1="306.13" x2="324.07" y2="306.13"/><path class="cls-8" d="M320.06,163A147.12,147.12,0,0,0,68.92,316.35H320.46a147.18,147.18,0,0,0,7.48-138.7"/></g></g></g></svg>