<svg width="279" height="193" viewBox="0 0 279 193" fill="none" xmlns="http://www.w3.org/2000/svg">
<g clip-path="url(#clip0)">
<path d="M8.58265 86.2224C4.48437 78.6824 3.30696 69.8745 5.32214 61.5421C11.0507 37.9261 27.2627 -3.53223 70.1701 2.33216C129.72 10.4834 147.041 12.5213 171.472 4.86811C195.903 -2.78503 238.154 -2.76239 251.377 14.5364C259.393 25.0199 286.496 72.0482 269.197 88.3508C251.898 104.653 277.575 136.896 278.367 154.014C279.16 171.131 254.457 173.35 223.391 173.871C192.326 174.392 11.8658 168.46 11.8658 168.46C11.8658 168.46 -11.2748 128.564 7.06561 114.322C18.4095 105.491 13.3149 94.9397 8.58265 86.2224Z" fill="#33BCE3" fill-opacity="0.11"/>
<path d="M26.6287 149.802C22.6662 149.666 7.79017 151.704 6.90711 152.474C6.68069 152.678 3.42018 162.369 17.7528 174.867C40.667 194.883 102.3 195.563 122.27 187.955C151.253 176.905 183.02 197.623 248.841 189.698C269.876 187.162 283.937 154.942 274.382 150.753C268.654 148.263 261.793 154.874 256.042 151.976C249.408 148.625 235.981 146.542 227.671 149.1C227.331 149.191 227.127 149.553 227.218 149.893C227.309 150.21 227.626 150.414 227.965 150.346L223.595 151.75C218.727 155.372 219.814 150.549 208.402 149.938L174.755 149.1C162.732 149.463 116.429 151.5 98.3146 150.776H88.3519C81.6951 149.938 64.4642 149.553 63.8302 149.531L26.6287 149.802Z" fill="#33BCE3" fill-opacity="0.11"/>
<path d="M40.3273 100.51H50.5164C50.5164 100.51 53.6864 100.963 53.9128 103.227C54.1392 105.491 53.8449 134.949 53.8449 134.949L74.291 134.7C74.291 134.7 76.3288 135.379 76.3288 137.643C76.3288 139.908 74.7438 140.813 74.7438 140.813L43.6784 140.677L40.3273 100.51Z" fill="#33BCE3" fill-opacity="0.49"/>
<path d="M40.3273 100.51C40.3273 100.51 37.3838 100.963 37.1574 105.491C36.931 110.02 37.1574 140.587 37.1574 140.587L68.2002 140.813C68.653 140.813 69.0832 140.632 69.3776 140.292C69.8304 139.794 70.4418 139.025 70.4418 138.323C70.4418 137.1 69.9889 135.153 67.4982 135.153C65.0076 135.153 43.9501 134.926 43.9501 134.926L43.4973 103.227C43.4973 103.249 43.4973 100.963 40.3273 100.51Z" fill="#33BCE3" fill-opacity="0.62"/>
<path d="M53.3241 140.745C53.3241 140.745 52.7807 143.304 54.5921 143.304H57.5356C57.762 143.304 58.7356 141.945 58.1243 140.813C57.5129 139.681 53.3241 140.745 53.3241 140.745Z" fill="#BAC6F2"/>
<path d="M54.5921 143.327L54.8185 168.89H56.8563L56.9695 143.168L54.5921 143.327Z" fill="#E9EDFA"/>
<path d="M46.2144 168.437L65.6869 168.663V170.475L46.2144 170.248V168.437Z" fill="#E9EDFA"/>
<path d="M84.7065 170.701L83.8008 123.379H88.5557L88.3293 170.701H84.7065Z" fill="white"/>
<path d="M188.182 123.605H193.39L191.579 170.928L188.182 171.154V123.605Z" fill="white"/>
<path d="M80.178 115.227L80.4044 122.926L195.654 123.605L195.79 115.001L80.178 115.227Z" fill="#E9EDFA"/>
<path d="M73.1589 110.925L202.674 111.378V115.68L73.3853 115.454L73.1589 110.925Z" fill="#33BCE3" fill-opacity="0.49"/>
<path d="M231.588 151.184L231.814 170.43L257.627 169.977V151.184H231.588Z" fill="#E9EDFA"/>
<path d="M251.966 170.067L251.989 151.184H250.336" fill="white"/>
<path d="M238.29 151.138C238.29 151.138 237.679 139.726 243.068 136.489C248.457 133.251 243.837 125.688 244.924 121.68C246.011 117.673 251.083 114.729 251.083 111.65C251.083 108.57 250.63 99.921 256.472 97.3172C262.314 94.7133 266.955 98.087 265.121 103.182C263.287 108.276 261.883 114.14 259.868 115.975C257.853 117.809 258.646 120.752 258.94 124.307C259.234 127.862 256.472 133.704 254.932 135.877C253.393 138.051 254.932 141.742 254.479 145.591C254.479 145.591 253.642 150.98 252.781 151.161C251.921 151.342 238.29 151.138 238.29 151.138Z" fill="#33BCE3" fill-opacity="0.49"/>
<path d="M250.336 151.5C250.336 151.5 251.015 146.066 244.992 144.527C238.969 142.987 244.132 139.387 242.932 137.485C241.732 135.583 236.048 134.179 236.048 132.73C236.048 131.281 236.569 127.16 230.026 125.915C223.482 124.669 218.319 126.277 220.38 128.7C222.44 131.122 224.003 133.907 226.222 134.79C228.441 135.673 227.603 137.055 227.263 138.753C226.924 140.451 230.026 143.236 231.746 144.255C233.467 145.274 231.746 147.04 232.267 148.874C232.267 148.874 233.218 151.433 234.147 151.523C235.075 151.614 250.336 151.5 250.336 151.5Z" fill="#33BCE3" fill-opacity="0.49"/>
<path d="M245.309 151.478C245.309 151.478 244.834 145.795 249.023 144.187C253.211 142.579 249.634 138.821 250.449 136.828C251.264 134.836 255.249 133.387 255.249 131.847C255.249 130.307 254.887 126.028 259.438 124.714C263.989 123.401 267.589 125.099 266.14 127.635C264.691 130.171 263.627 133.07 262.065 133.998C260.502 134.926 261.114 136.375 261.34 138.141C261.566 139.908 259.415 142.828 258.215 143.893C257.015 144.957 258.215 146.813 257.853 148.715C257.853 148.715 257.197 151.387 256.54 151.478C255.883 151.568 245.309 151.478 245.309 151.478Z" fill="#33BCE3" fill-opacity="0.49"/>
<path d="M100.058 42.047L100.217 85.4752L221.014 85.294V42.3866L100.058 42.047Z" fill="white"/>
<path d="M121.659 55.6324V60.9761L171.133 60.7496V55.6324H121.659Z" fill="#33BCE3" fill-opacity="0.49"/>
<path d="M121.659 70.5085V75.8521L171.133 75.6257V70.5085H121.659Z" fill="#33BCE3" fill-opacity="0.49"/>
<path d="M113.304 62.8327C115.355 62.8327 117.017 61.1702 117.017 59.1194C117.017 57.0686 115.355 55.406 113.304 55.406C111.253 55.406 109.591 57.0686 109.591 59.1194C109.591 61.1702 111.253 62.8327 113.304 62.8327Z" fill="#33BCE3" fill-opacity="0.49"/>
<path d="M113.304 76.7125C115.355 76.7125 117.017 75.05 117.017 72.9992C117.017 70.9484 115.355 69.2858 113.304 69.2858C111.253 69.2858 109.591 70.9484 109.591 72.9992C109.591 75.05 111.253 76.7125 113.304 76.7125Z" fill="#33BCE3" fill-opacity="0.49"/>
<path d="M214.017 61.4742H184.65V75.8068H214.017V61.4742Z" fill="#E9EDFA"/>
<path d="M184.175 75.1276C184.175 75.1276 186.462 70.1236 188.635 70.667C190.809 71.2104 191.352 73.4973 192.983 72.5237C194.613 71.5501 195.677 67.6103 197.262 66.9763C199.526 66.0932 200.273 67.0669 203.33 68.8103C206.387 70.5538 207.678 70.1689 208.923 68.8783C210.078 67.7009 212.206 64.5083 214.561 63.0818" stroke="#BAC6F2" stroke-width="0.679273" stroke-linecap="round" stroke-linejoin="round"/>
<path d="M90.6388 42.613H46.9389V84.1619H90.6388V42.613Z" fill="white"/>
<path d="M68.2228 79.0674C74.4628 79.0674 79.5214 74.0088 79.5214 67.7688C79.5214 61.5288 74.4628 56.4702 68.2228 56.4702C61.9828 56.4702 56.9242 61.5288 56.9242 67.7688C56.9242 74.0088 61.9828 79.0674 68.2228 79.0674Z" stroke="#33BCE3" stroke-opacity="0.49" stroke-width="1.35855" stroke-linecap="round" stroke-linejoin="round"/>
<path d="M60.9319 46.2132H49.8145V48.8397H60.9319V46.2132Z" fill="#33BCE3" fill-opacity="0.49"/>
<path d="M60.9319 50.3341H49.8145V52.9606H60.9319V50.3341Z" fill="#33BCE3" fill-opacity="0.49"/>
<path d="M82.3064 104.178H116.791C116.791 104.178 118.081 104.11 118.081 102.615V99.6493H80.9479V103.249C81.129 103.816 81.6724 104.2 82.3064 104.178Z" fill="#84CFE4"/>
<path d="M80.9479 77.2333L80.9252 100.781L118.081 100.442V76.5541C118.081 76.5541 118.308 75.1955 116.859 75.1955H82.3517C82.3517 75.1955 80.7894 75.1955 80.9479 77.2333Z" fill="#84CFE4"/>
<path d="M96.5711 110.495V103.951L102.005 104.178V109.929L96.5711 110.495Z" fill="#84CFE4"/>
<path d="M87.9444 109.838H110.519L110.542 110.971H87.9444V109.838Z" fill="#84CFE4"/>
<path d="M99.175 101.257C99.7864 101.257 100.262 101.732 100.262 102.344C100.262 102.955 99.7864 103.431 99.175 103.431C98.5637 103.431 98.0882 102.955 98.0882 102.344C98.0882 101.732 98.5863 101.257 99.175 101.257Z" fill="white"/>
<path d="M116.949 76.3276H82.08V99.1965H116.949V76.3276Z" fill="#F8F8FF"/>
<path d="M83.8234 77.505C84.1178 77.505 84.3669 77.7541 84.3669 78.0485C84.3669 78.3428 84.1178 78.5919 83.8234 78.5919C83.5291 78.5919 83.28 78.3428 83.28 78.0485C83.28 77.7541 83.5291 77.505 83.8234 77.505Z" fill="#FA5F5D"/>
<path d="M85.6801 77.505C85.9745 77.505 86.2235 77.7541 86.2235 78.0485C86.2235 78.3428 85.9745 78.5919 85.6801 78.5919C85.3858 78.5919 85.1367 78.3428 85.1367 78.0485C85.1367 77.7541 85.3858 77.505 85.6801 77.505Z" fill="#FDBC4E"/>
<path d="M87.6274 77.505C87.9217 77.505 88.1708 77.7541 88.1708 78.0485C88.1708 78.3428 87.9217 78.5919 87.6274 78.5919C87.333 78.5919 87.084 78.3428 87.084 78.0485C87.084 77.7541 87.333 77.505 87.6274 77.505Z" fill="#37CD58"/>
<path d="M95.2126 81.4901C95.1899 81.7844 94.9409 82.0109 94.6465 81.9882H87.967C87.6274 81.9882 87.2877 81.7618 87.2877 81.4901V80.4712C87.2877 80.1995 87.6047 79.9504 87.967 79.9504H94.6239C94.9182 79.9278 95.1899 80.1542 95.2126 80.4485V80.4712V81.4901Z" fill="url(#paint0_linear)"/>
<path d="M111.289 88.2375C111.266 88.5545 110.994 88.8036 110.677 88.781H87.967C87.6274 88.781 87.2877 88.5319 87.2877 88.2375V83.2109C87.2877 82.9166 87.6274 82.6675 87.967 82.6675H110.677C110.994 82.6449 111.266 82.8939 111.289 83.2109V88.2375Z" fill="url(#paint1_linear)"/>
<path d="M94.7597 92.5396C94.7597 92.834 94.5107 93.083 94.2163 93.083H87.967C87.6047 93.083 87.2877 92.834 87.2877 92.5396V89.7772C87.2877 89.4829 87.6274 89.2338 87.967 89.2338H94.171C94.4654 89.2112 94.7371 89.4376 94.7597 89.7546V89.7772V92.5396Z" fill="url(#paint2_linear)"/>
<path d="M102.911 92.5396C102.911 92.834 102.662 93.083 102.368 93.083H96.1183C95.756 93.083 95.439 92.834 95.439 92.5396V89.7772C95.439 89.4829 95.7786 89.2338 96.1183 89.2338H102.322C102.617 89.2112 102.888 89.4376 102.911 89.7546V89.7772V92.5396Z" fill="url(#paint3_linear)"/>
<path d="M111.289 92.5396C111.266 92.8566 110.994 93.1057 110.677 93.083H104.473C104.134 93.1057 103.862 92.8566 103.817 92.5396V89.7772C103.839 89.4376 104.134 89.2112 104.473 89.2338H110.677C110.994 89.2112 111.289 89.4602 111.311 89.7772L111.289 92.5396Z" fill="url(#paint4_linear)"/>
<path d="M102.911 94.1019C102.866 94.2151 102.775 94.2831 102.662 94.3057C102.639 94.3057 102.639 94.3057 102.617 94.2151H95.7786C95.6428 94.3057 95.439 94.2151 95.439 94.1019V94.0114C95.439 93.8982 95.6428 93.7849 95.7786 93.7623H102.617C102.73 93.7849 102.798 93.8755 102.82 93.9661C102.82 93.9887 102.82 93.9887 102.888 94.0114L102.911 94.1019Z" fill="#E9EDFB"/>
<path d="M102.911 94.985C102.866 95.0982 102.775 95.1888 102.662 95.2114C102.662 95.2114 102.639 95.2114 102.639 95.1208H95.7786C95.6428 95.2114 95.439 95.1208 95.439 94.985V94.8944C95.439 94.7812 95.6428 94.6906 95.7786 94.668H102.617C102.73 94.6906 102.843 94.7812 102.888 94.8944L102.911 94.985Z" fill="#E9EDFB"/>
<path d="M102.911 95.8907C102.866 96.0265 102.753 96.1171 102.639 96.1398C102.639 96.0945 102.639 96.0718 102.639 96.0265H95.7786C95.6654 96.0945 95.5296 96.0718 95.4616 95.9586C95.439 95.936 95.439 95.9133 95.439 95.8907V95.8001C95.439 95.6869 95.6428 95.619 95.7786 95.5737H102.617C102.73 95.5963 102.843 95.6869 102.888 95.8001L102.911 95.8907Z" fill="#E9EDFB"/>
<path d="M102.911 96.7737C102.843 96.9096 102.753 97.0455 102.639 97.1587H95.7786C95.6428 97.0455 95.439 96.9096 95.439 96.7737V96.6832C95.439 96.57 95.6428 96.4341 95.7786 96.4794H102.617C102.707 96.4567 102.798 96.5247 102.82 96.6152C102.82 96.6379 102.82 96.6605 102.82 96.6832C102.82 96.6832 102.82 96.6832 102.888 96.7058L102.911 96.7737Z" fill="#E9EDFB"/>
<path d="M99.1071 97.6794C99.1071 97.7926 99.0391 97.8379 98.9033 97.8379H95.756C95.6201 97.8379 95.439 97.7926 95.439 97.6794V97.5889C95.439 97.4757 95.6201 97.3851 95.756 97.3851H98.9033C99.0165 97.3851 99.1071 97.4757 99.1071 97.5889V97.6794Z" fill="#E9EDFB"/>
<path d="M111.289 94.1019C111.153 94.2151 111.175 94.3057 111.04 94.2151H104.202C104.088 94.3057 103.975 94.2378 103.975 94.1246C103.975 94.1246 103.975 94.1246 104.043 94.1019V94.0114C103.975 93.8982 104.066 93.7849 104.202 93.7623H111.04C111.175 93.8076 111.153 93.8982 111.289 94.0114V94.1019Z" fill="#E9EDFB"/>
<path d="M111.289 94.985C111.153 95.0982 111.175 95.2114 111.04 95.1208H104.202C104.066 95.2114 103.975 95.1208 104.043 94.985V94.8944C103.975 94.7812 104.066 94.6906 104.202 94.668H111.04C111.175 94.7133 111.153 94.7812 111.289 94.8944V94.985Z" fill="#E9EDFB"/>
<path d="M111.289 95.8907C111.153 96.0039 111.175 96.1398 111.04 96.0265H104.202C104.066 96.1171 103.975 96.0265 104.043 95.8907V95.8001C103.975 95.6869 104.066 95.619 104.202 95.5737H111.04C111.175 95.619 111.153 95.6869 111.289 95.8001V95.8907Z" fill="#E9EDFB"/>
<path d="M111.289 96.7737C111.153 96.887 111.175 97.0455 111.04 97.1587H104.202C104.066 97.0228 103.975 96.9096 104.043 96.7737V96.6832C103.998 96.6379 103.998 96.5473 104.043 96.502C104.088 96.4794 104.134 96.4568 104.179 96.4794H111.04C111.175 96.4341 111.153 96.57 111.289 96.6832V96.7737V96.7737Z" fill="#E9EDFB"/>
<path d="M107.53 97.6794C107.53 97.7926 107.53 97.8379 107.417 97.8379H104.247C104.111 97.8379 104.043 97.7926 104.043 97.6794V97.5889C104.043 97.4757 104.134 97.3851 104.247 97.3851H107.394C107.53 97.3851 107.507 97.4757 107.507 97.5889L107.53 97.6794Z" fill="#E9EDFB"/>
<path d="M94.5333 94.1019C94.6239 94.2151 94.5786 94.3057 94.4427 94.2151H87.5821C87.4915 94.2831 87.3783 94.2604 87.333 94.1925C87.3104 94.1699 87.3104 94.1472 87.2877 94.1019V94.0114C87.333 93.8755 87.4462 93.7849 87.5821 93.7623H94.4201C94.556 93.8076 94.6012 93.8982 94.5107 94.0114L94.5333 94.1019Z" fill="#E9EDFB"/>
<path d="M94.5333 94.985C94.6239 95.0982 94.5786 95.2114 94.4427 95.1208H87.5821C87.4462 95.2341 87.333 95.1208 87.2877 94.985V94.8944C87.3104 94.7812 87.4462 94.6906 87.5821 94.668H94.4201C94.556 94.7133 94.6012 94.7812 94.5107 94.8944L94.5333 94.985Z" fill="#E9EDFB"/>
<path d="M94.5333 95.8907C94.6239 96.0039 94.5786 96.1398 94.4427 96.0265H87.5821C87.4462 96.1398 87.333 96.0265 87.2877 95.8907V95.8001C87.3104 95.6869 87.4462 95.619 87.5821 95.5737H94.4201C94.556 95.619 94.6012 95.6869 94.5107 95.8001L94.5333 95.8907Z" fill="#E9EDFB"/>
<path d="M92.4955 96.4794H94.4427C94.5786 96.4341 94.6239 96.57 94.5333 96.6832V96.7737C94.6239 96.887 94.5786 97.0455 94.4427 97.1587H87.5821C87.4462 97.0681 87.3557 96.9322 87.2877 96.7737V96.6832C87.3104 96.5473 87.4462 96.4567 87.5821 96.4794H92.4955Z" fill="#E9EDFB"/>
<path d="M91.1369 97.6794C91.1369 97.7926 91.069 97.8379 90.9332 97.8379H87.5368C87.4009 97.8379 87.2877 97.7926 87.2877 97.6794V97.5889C87.3104 97.4757 87.4236 97.3851 87.5368 97.3851H90.9332C91.0464 97.3851 91.1369 97.4757 91.1369 97.5662C91.1369 97.5662 91.1369 97.5662 91.1369 97.5889V97.6794Z" fill="#E9EDFB"/>
<path d="M18.8623 169.931C18.8623 169.931 20.8548 159.108 10.3488 153.312C-0.134694 147.515 -0.632827 147.583 -2.71593 146.927C-3.91598 146.519 -5.13867 147.38 -3.75748 149.1C-2.37629 150.844 -3.16878 151.274 -0.406402 152.044C2.35597 152.814 2.76354 156.165 4.14473 157.003C5.52591 157.84 6.72596 158.067 10.9375 159.878C14.764 161.531 18.0245 166.195 18.0245 167.826C18.0245 169.456 21.7605 170.022 21.7605 170.022L18.8623 169.931Z" fill="url(#paint5_linear)"/>
<path d="M18.5 168.414C18.5 168.414 21.1718 158.452 11.979 153.063C2.78618 147.674 -0.406401 147.742 -2.24044 147.085C-3.28199 146.7 -0.429044 148.014 0.771005 149.599C1.97105 151.206 1.6767 150.844 3.82773 152.021C6.3184 153.402 7.35995 154.738 8.83171 155.01C10.9601 155.418 10.3261 157.637 14.0168 159.289C17.3453 160.807 17.7755 164.86 17.7755 166.377C17.7755 167.916 21.036 168.414 21.036 168.414H18.5Z" fill="url(#paint6_linear)"/>
<path d="M27.7381 166.943L28.7797 165.946C29.2778 165.494 29.8892 165.154 30.5458 164.973C33.7837 164.112 43.9954 160.92 48.2295 153.199C48.2748 153.131 48.2295 153.04 48.1616 153.018H48.139C48.1163 153.018 48.0937 152.995 48.0937 152.995C46.6899 152.882 39.4216 152.768 29.708 161.056C29.5269 161.191 29.3684 161.373 29.2325 161.531C28.9835 161.871 28.5759 162.459 28.3948 162.754C28.1457 163.207 28.6438 163.954 27.9646 164.61C27.2853 165.267 25.8135 166.92 25.8135 166.92L27.0136 167.803L27.7381 166.943Z" fill="url(#paint7_linear)"/>
<path d="M22.2134 166.309C22.2134 166.309 24.9984 141.379 17.3906 133.545C10.394 126.345 10.2808 132.956 10.3035 134.088C10.3035 134.202 10.3488 134.27 10.3714 134.36C12.0243 137.44 12.5904 140.994 12.0017 144.436C11.2771 148.036 16.4396 147.561 16.8924 151.116C17.3453 154.67 19.134 160.15 18.9529 162.663C18.7717 165.177 18.7491 167.622 18.7491 167.622L21.5568 167.712L22.2134 166.309Z" fill="url(#paint8_linear)"/>
<path d="M22.1907 166.377C22.2134 166.331 22.236 166.263 22.236 166.195C22.4172 164.565 24.7493 141.085 17.4132 133.522C10.462 126.345 10.3488 132.843 10.394 134.021C10.4167 134.156 10.4846 134.292 10.5525 134.405C11.0733 135.153 13.3602 138.413 15.398 138.051C21.036 137.055 16.0546 143.825 19.1114 147.448C21.5568 150.3 20.7416 160.173 20.5605 162.708C20.4473 164.135 20.1982 165.539 19.8359 166.92C19.768 167.282 20.0171 167.622 20.3567 167.69C20.3794 167.69 20.402 167.69 20.402 167.69C20.4473 167.69 20.4926 167.712 20.5378 167.712H21.0586C21.3756 167.735 21.6473 167.577 21.7832 167.305L22.1907 166.377Z" fill="url(#paint9_linear)"/>
<path d="M24.9305 167.826C24.9305 167.826 25.4286 160.92 29.459 156.708C30.5911 155.553 32.0176 154.761 33.5799 154.399C34.7799 154.127 36.7498 153.153 38.4707 149.916C38.4707 149.916 41.7085 145.319 44.969 143.938C48.2069 142.534 44.969 142.376 44.969 142.376C44.969 142.376 35.6856 144.142 29.7307 149.576C29.3458 149.916 28.9608 150.233 28.5306 150.504C26.9909 151.568 22.7115 155.531 22.8927 167.146L24.9305 167.826Z" fill="url(#paint10_linear)"/>
<path d="M32.9912 167.282C32.9912 167.282 33.127 166.445 32.0176 166.467C31.0439 166.512 14.6508 166.377 14.6508 166.377C14.6508 166.377 13.881 166.377 13.9263 166.965C13.9715 167.554 16.4622 181.207 16.6886 181.479C16.8018 181.66 16.9603 181.796 17.1641 181.841C17.4811 181.932 28.9835 181.864 28.9835 181.864C29.2552 181.819 29.459 181.615 29.4816 181.343C29.4816 181.343 33.0138 167.441 32.9912 167.282Z" fill="url(#paint11_linear)"/>
<path d="M200.432 179.939C199.821 177.358 199.617 174.052 199.209 173.984H198.756L194.432 174.03C194.432 174.03 193.526 178.151 193.073 179.871C193.028 179.985 192.96 180.279 192.869 180.483C192.779 180.777 192.779 181.094 192.779 181.388C192.869 182.951 193.481 184.287 194.862 184.989C196.424 185.758 197.602 186.506 199.187 184.989C200.794 183.449 201.043 182.521 200.432 179.939Z" fill="#4464E7"/>
<path d="M186.733 174.392L181.254 174.686C181.254 174.686 179.08 178.445 175.91 179.351C172.921 180.211 167.985 182.294 170.182 183.472C171.812 184.423 182.363 183.562 184.922 183.766C186.846 183.924 187.367 182.747 187.163 180.166C187.028 178.219 186.733 174.392 186.733 174.392Z" fill="#4464E7"/>
<path d="M180.167 105.989C180.167 105.989 176.499 136.217 176.25 138.187C176.001 140.157 177.518 150.233 177.518 152.157C177.518 154.082 181.118 174.709 181.118 174.709L186.846 174.46C186.846 174.46 185.692 144.096 185.828 142.625C185.941 141.153 192.213 123.537 192.213 123.537C192.213 123.537 192.666 128.201 192.666 129.673C192.666 131.145 194.386 174.098 194.386 174.098H199.368L206.432 110.835L206.319 109.612L180.167 105.989Z" fill="url(#paint12_linear)"/>
<path d="M196.99 47.5944C196.99 47.5944 191.511 49.7228 190.288 50.1983C189.065 50.6964 188.364 52.1908 188.364 52.1908C188.364 52.1908 187.752 51.8285 187.752 52.8474C187.752 53.8663 188.25 56.1985 188.658 56.8098C189.315 57.8288 189.881 58.8477 190.424 59.9119C190.922 60.9761 190.741 63.1724 190.22 63.512C189.699 63.829 180.461 72.1841 180.461 72.1841L172.763 95.8454L173.782 103.317L175.344 110.676C175.344 110.676 175.027 111.197 175.661 111.831C176.318 112.442 179.103 117.016 179.103 117.016L180.054 110.269L176.906 100.261L175.797 91.8377L183.156 76.8031L208.651 81.3316L211.436 97.7247L206.274 111.695L205.368 118.51L209.693 114.707C209.942 114.503 210.417 113.439 210.666 112.872L213.248 105.604L215.172 93.9887C215.172 93.9887 199.073 64.9838 198.258 63.2629C197.896 62.4931 198.304 60.6138 198.507 59.6628C198.711 58.8024 199.119 57.6929 199.526 57.3759C200.138 56.7193 200.432 55.7909 200.59 54.9305C200.59 54.3192 200.84 51.9417 200.228 52.5304C200.115 52.6889 199.662 51.9644 199.458 51.0134C199.073 49.6322 198.1 48.4774 196.99 47.5944Z" fill="url(#paint13_linear)"/>
<path d="M194.907 71.2557C194.5 71.618 193.888 71.5727 193.526 71.2104C193.232 70.7576 192.96 70.3047 192.756 69.8519C192.349 69.0367 189.201 64.4177 189.201 64.4177C189.201 64.4177 181.729 66.3423 180.529 67.1121C179.307 67.9273 178.197 69.0368 177.79 70.4632C177.382 71.8897 171.608 88.6904 171.336 89.7093C171.042 90.7282 169.57 92.3585 170.272 96.502C170.974 100.646 174.846 111.22 175.254 111.333C175.661 111.446 179.782 109.408 179.782 109.408C179.782 109.408 176.522 96.2529 176.522 94.9397C176.522 93.6264 179.465 89.9131 180.642 87.3771C181.82 84.8412 182.68 82.6449 183.088 81.5354C183.495 80.4259 179.578 103.408 179.578 103.408C179.578 103.408 179.488 107.574 180.28 107.982C181.005 108.344 189.79 111.695 191.85 112.488C192.054 112.578 192.303 112.442 192.417 112.239L193.73 108.525C193.73 108.48 193.775 108.435 193.82 108.48C193.866 108.48 193.866 108.525 193.866 108.525L195.088 112.578C195.134 112.782 195.383 112.895 195.586 112.872L206.41 110.54C206.41 110.54 206.251 90.5697 206.455 87.2186C206.613 83.9581 206.206 82.1014 206.817 83.0071C207.474 83.9808 210.213 92.9698 210.213 94.4868C210.213 96.0039 207.157 109.272 207.157 109.272L211.21 111.514C211.21 111.514 216.689 96.9322 216.961 95.0076C217.255 93.083 217.368 92.0641 216.463 90.1395C215.557 88.2149 210.576 70.7802 210.576 70.7802C210.576 70.7802 210.078 68.6518 206.41 67.5423C202.741 66.4329 200.002 64.8026 199.345 64.8479C198.688 64.8932 196.651 68.7198 195.745 69.8745C195.315 70.3047 195.405 70.5085 194.907 71.2557Z" fill="url(#paint14_linear)"/>
<path d="M196.945 47.617C196.945 47.617 190.764 49.8586 189.518 50.8096C188.567 51.5115 188.364 52.1681 188.364 52.1681C188.364 52.1681 187.707 51.8738 187.752 52.8248C187.797 53.7758 187.028 51.353 186.801 50.5832C186.643 49.8133 186.597 47.6397 188.273 46.0547C189.948 44.4697 191.783 43.2697 193.345 43.3602C194.907 43.4508 196.175 43.881 197.398 45.0811C198.621 46.2585 198.915 46.1905 199.164 46.3038C199.413 46.417 200.681 47.7755 200.84 49.2473C200.998 50.719 200.545 52.8927 200.545 52.8927C200.545 52.8927 200.251 52.5757 199.934 52.8021C199.617 53.0286 199.526 51.4209 198.462 49.4058C197.692 47.9114 196.945 47.617 196.945 47.617Z" fill="url(#paint15_linear)"/>
<path opacity="0.07" d="M193.028 120.435C192.326 122.473 189.586 126.481 187.797 128.903C186.009 131.303 180.484 136.375 180.846 142.557C181.209 148.738 184.922 164.633 184.922 166.06C184.922 167.486 183.541 174.233 182.477 176.317C181.412 178.4 180.914 182.113 181.458 182.113C182.431 182.068 183.45 181.955 184.446 181.705C185.352 181.502 186.235 181.298 187.096 181.004C187.458 180.845 187.548 179.645 187.548 179.645C187.594 179.147 187.503 178.626 187.39 178.173C187.141 177.403 186.937 176.611 186.824 175.841C186.62 170.045 186.099 156.595 186.213 155.644C186.416 153.878 184.99 145.025 186.303 140.655C187.594 136.307 193.028 120.435 193.028 120.435Z" fill="black"/>
<path opacity="0.07" d="M179.782 109.408L178.831 116.676C178.831 116.676 179.782 118.193 180.054 116.925C180.348 115.658 182.295 113.28 181.073 111.582C179.85 109.884 179.782 109.408 179.782 109.408Z" fill="black"/>
<path opacity="0.07" d="M206.342 111.423L206.025 114.888L205.617 118.239C205.617 118.239 204.236 119.258 204.258 117.944C204.304 116.631 201.926 114.684 203.738 113.371C205.549 112.057 206.342 111.423 206.342 111.423Z" fill="black"/>
<path opacity="0.07" d="M189.156 64.463C189.405 64.4177 187.979 64.78 189.247 64.3724C191.42 63.6705 190.515 59.5949 190.515 59.5949C190.515 59.5949 190.718 61.1119 192.756 61.7233C194.794 62.3346 195.337 61.8817 192.258 63.3082C189.201 64.7347 190.786 65.2328 190.99 67.1121" fill="black"/>
<path opacity="0.07" d="M183.02 82.9392L179.578 103.77C179.578 103.77 179.624 107.484 180.28 108.027C180.937 108.548 183.133 108.933 183.631 109.295C184.129 109.657 189.428 111.423 188.047 108.435C187.73 107.778 180.575 103.77 183.767 99.5587C186.96 95.3473 186.371 89.5508 184.877 85.4978C183.971 83.1203 183.518 80.5844 183.654 78.0711L183.02 82.9392Z" fill="black"/>
</g>
<defs>
<linearGradient id="paint0_linear" x1="87.2822" y1="80.9653" x2="95.207" y2="80.9653" gradientUnits="userSpaceOnUse">
<stop stop-color="#4464E7"/>
<stop offset="1" stop-color="#33BCE3"/>
</linearGradient>
<linearGradient id="paint1_linear" x1="87.2822" y1="85.7202" x2="111.283" y2="85.7202" gradientUnits="userSpaceOnUse">
<stop stop-color="#2FEC68"/>
<stop offset="1" stop-color="#4464E7"/>
</linearGradient>
<linearGradient id="paint2_linear" x1="87.2822" y1="91.1537" x2="94.7542" y2="91.1537" gradientUnits="userSpaceOnUse">
<stop stop-color="#2FEC68"/>
<stop offset="1" stop-color="#4464E7"/>
</linearGradient>
<linearGradient id="paint3_linear" x1="95.4335" y1="91.1537" x2="102.905" y2="91.1537" gradientUnits="userSpaceOnUse">
<stop stop-color="#2FEC68"/>
<stop offset="1" stop-color="#4464E7"/>
</linearGradient>
<linearGradient id="paint4_linear" x1="103.811" y1="91.1544" x2="111.283" y2="91.1544" gradientUnits="userSpaceOnUse">
<stop stop-color="#2FEC68"/>
<stop offset="1" stop-color="#4464E7"/>
</linearGradient>
<linearGradient id="paint5_linear" x1="-4.33898" y1="158.404" x2="21.812" y2="158.404" gradientUnits="userSpaceOnUse">
<stop stop-color="#93FD93"/>
<stop offset="0.51" stop-color="#21C2C1"/>
<stop offset="1" stop-color="#84F599"/>
</linearGradient>
<linearGradient id="paint6_linear" x1="5.45955" y1="150.145" x2="20.3185" y2="168.362" gradientUnits="userSpaceOnUse">
<stop stop-color="#93FD93"/>
<stop offset="0.51" stop-color="#21C2C1"/>
<stop offset="1" stop-color="#84F599"/>
</linearGradient>
<linearGradient id="paint7_linear" x1="22.5694" y1="170.745" x2="42.9974" y2="154.939" gradientUnits="userSpaceOnUse">
<stop stop-color="#93FD93"/>
<stop offset="0.51" stop-color="#21C2C1"/>
<stop offset="1" stop-color="#84F599"/>
</linearGradient>
<linearGradient id="paint8_linear" x1="27.7049" y1="162.717" x2="10.1591" y2="140.506" gradientUnits="userSpaceOnUse">
<stop stop-color="#93FD93"/>
<stop offset="0.51" stop-color="#21C2C1"/>
<stop offset="1" stop-color="#84F599"/>
</linearGradient>
<linearGradient id="paint9_linear" x1="10.3814" y1="148.953" x2="22.7264" y2="148.953" gradientUnits="userSpaceOnUse">
<stop stop-color="#93FD93"/>
<stop offset="0.51" stop-color="#21C2C1"/>
<stop offset="1" stop-color="#84F599"/>
</linearGradient>
<linearGradient id="paint10_linear" x1="21.6682" y1="169.122" x2="35.0409" y2="149.782" gradientUnits="userSpaceOnUse">
<stop stop-color="#93FD93"/>
<stop offset="0.51" stop-color="#21C2C1"/>
<stop offset="1" stop-color="#84F599"/>
</linearGradient>
<linearGradient id="paint11_linear" x1="13.9588" y1="174.12" x2="33.0121" y2="174.12" gradientUnits="userSpaceOnUse">
<stop stop-color="#2FEC68"/>
<stop offset="1" stop-color="#4464E7"/>
</linearGradient>
<linearGradient id="paint12_linear" x1="176.21" y1="140.345" x2="206.393" y2="140.345" gradientUnits="userSpaceOnUse">
<stop stop-color="#2FEC68"/>
<stop offset="1" stop-color="#4464E7"/>
</linearGradient>
<linearGradient id="paint13_linear" x1="172.763" y1="83.0555" x2="215.179" y2="83.0555" gradientUnits="userSpaceOnUse">
<stop stop-color="#F87B58"/>
<stop offset="0.41" stop-color="#F89453"/>
<stop offset="0.71" stop-color="#F8C548"/>
<stop offset="1" stop-color="#F89C51"/>
</linearGradient>
<linearGradient id="paint14_linear" x1="170.086" y1="88.6371" x2="217.216" y2="88.6371" gradientUnits="userSpaceOnUse">
<stop stop-color="#4464E7"/>
<stop offset="1" stop-color="#33BCE3"/>
</linearGradient>
<linearGradient id="paint15_linear" x1="186.745" y1="48.1824" x2="200.918" y2="48.1824" gradientUnits="userSpaceOnUse">
<stop stop-color="#4B45BD"/>
<stop offset="1" stop-color="#58CAEA"/>
</linearGradient>
<clipPath id="clip0">
<rect width="278.391" height="192.438" fill="white"/>
</clipPath>
</defs>
</svg>
