<svg xmlns="http://www.w3.org/2000/svg" viewBox="0 0 418.21 389.17"><defs><style>.cls-1{fill:#90a4ae;}.cls-1,.cls-2,.cls-7,.cls-9{opacity:0.25;}.cls-2,.cls-3,.cls-8,.cls-9{fill:none;stroke-linecap:round;}.cls-2{stroke:#707070;stroke-miterlimit:10;stroke-width:15.1px;}.cls-3,.cls-9{stroke:#000;}.cls-3,.cls-8,.cls-9{stroke-linejoin:round;stroke-width:12.08px;}.cls-4{fill:#b0bec5;}.cls-5{fill:#4464e6;}.cls-6{fill:#33bbe2;}.cls-8{stroke:#fff;opacity:0.75;}</style></defs><title>Asset 8</title><g id="Layer_2" data-name="Layer 2"><g id="Illustrations"><g id="AI"><circle class="cls-1" cx="209.34" cy="194.59" r="194.59"/><line class="cls-2" x1="333.42" y1="334.17" x2="83.39" y2="334.17"/><line class="cls-3" x1="412.18" y1="322.41" x2="396.99" y2="322.41"/><line class="cls-3" x1="359.6" y1="321.89" x2="58.91" y2="321.89"/><line class="cls-3" x1="21.23" y1="322.41" x2="6.04" y2="322.41"/><path class="cls-4" d="M69.46,105.75H349.22a0,0,0,0,1,0,0V308.37a4.22,4.22,0,0,1-4.22,4.22H73.67a4.22,4.22,0,0,1-4.22-4.22V105.75A0,0,0,0,1,69.46,105.75Z"/><rect class="cls-4" x="49.82" y="75.55" width="319.02" height="29.07" rx="3.61"/><rect class="cls-5" x="105.18" y="129.74" width="95.61" height="62.79" rx="2.7"/><g id="shock_color"><circle class="cls-6" cx="275.25" cy="161.14" r="31.4" transform="translate(19.5 351.72) rotate(-67.04)"/><circle class="cls-6" cx="152.98" cy="252.91" r="31.4"/></g><rect class="cls-7" x="49.82" y="75.55" width="319.02" height="29.07" rx="3.61"/><rect class="cls-3" x="49.82" y="75.55" width="319.02" height="29.07" rx="3.61"/><path class="cls-3" d="M69.46,105.75H349.22a0,0,0,0,1,0,0V308.37a4.22,4.22,0,0,1-4.22,4.22H73.67a4.22,4.22,0,0,1-4.22-4.22V105.75A0,0,0,0,1,69.46,105.75Z"/><path class="cls-3" d="M301.13,222.64A38.22,38.22,0,1,0,313.31,247"/><polyline class="cls-3" points="318.53 225.35 273.24 263.39 258.15 248.08"/><rect class="cls-3" x="105.18" y="129.74" width="95.61" height="62.79" rx="2.7"/><circle class="cls-3" cx="275.25" cy="161.14" r="31.4" transform="translate(19.5 351.72) rotate(-67.04)"/><circle class="cls-3" cx="152.98" cy="252.91" r="31.4"/><line class="cls-3" x1="200.78" y1="161.14" x2="243.86" y2="161.14"/><line class="cls-3" x1="152.98" y1="221.51" x2="152.98" y2="193.54"/><line class="cls-8" x1="341.34" y1="88.87" x2="189.41" y2="89.01"/><path class="cls-9" d="M349.22,287.56a17,17,0,0,1-17,17H86.43a17,17,0,0,1-17-17"/></g></g></g></svg>